<?xml version="1.0" encoding="UTF-8"?>
<svg xmlns="http://www.w3.org/2000/svg" xmlns:xlink="http://www.w3.org/1999/xlink" width="600pt" height="450pt" viewBox="0 0 600 450" version="1.1">
<defs>
<g>
<symbol overflow="visible" id="cdISqWsS0-0">
<path style="stroke:none;" d="M 0.59375 2.125 L 0.59375 -8.46875 L 6.59375 -8.46875 L 6.59375 2.125 Z M 1.265625 1.453125 L 5.9375 1.453125 L 5.9375 -7.78125 L 1.265625 -7.78125 Z M 1.265625 1.453125 "/>
</symbol>
<symbol overflow="visible" id="cdISqWsS0-1">
<path style="stroke:none;" d="M 3.8125 -7.96875 C 3.207031 -7.96875 2.75 -7.664062 2.4375 -7.0625 C 2.132812 -6.46875 1.984375 -5.566406 1.984375 -4.359375 C 1.984375 -3.160156 2.132812 -2.257812 2.4375 -1.65625 C 2.75 -1.0625 3.207031 -0.765625 3.8125 -0.765625 C 4.425781 -0.765625 4.882812 -1.0625 5.1875 -1.65625 C 5.5 -2.257812 5.65625 -3.160156 5.65625 -4.359375 C 5.65625 -5.566406 5.5 -6.46875 5.1875 -7.0625 C 4.882812 -7.664062 4.425781 -7.96875 3.8125 -7.96875 Z M 3.8125 -8.90625 C 4.789062 -8.90625 5.539062 -8.515625 6.0625 -7.734375 C 6.582031 -6.960938 6.84375 -5.835938 6.84375 -4.359375 C 6.84375 -2.890625 6.582031 -1.765625 6.0625 -0.984375 C 5.539062 -0.210938 4.789062 0.171875 3.8125 0.171875 C 2.832031 0.171875 2.082031 -0.210938 1.5625 -0.984375 C 1.050781 -1.765625 0.796875 -2.890625 0.796875 -4.359375 C 0.796875 -5.835938 1.050781 -6.960938 1.5625 -7.734375 C 2.082031 -8.515625 2.832031 -8.90625 3.8125 -8.90625 Z M 3.8125 -8.90625 "/>
</symbol>
<symbol overflow="visible" id="cdISqWsS0-2">
<path style="stroke:none;" d="M 0.59375 -3.765625 L 3.75 -3.765625 L 3.75 -2.8125 L 0.59375 -2.8125 Z M 0.59375 -3.765625 "/>
</symbol>
<symbol overflow="visible" id="cdISqWsS1-0">
<path style="stroke:none;" d="M 0.59375 2.125 L 0.59375 -8.46875 L 6.59375 -8.46875 L 6.59375 2.125 Z M 1.265625 1.453125 L 5.9375 1.453125 L 5.9375 -7.78125 L 1.265625 -7.78125 Z M 1.265625 1.453125 "/>
</symbol>
<symbol overflow="visible" id="cdISqWsS1-1">
<path style="stroke:none;" d="M 1.296875 -8.75 L 5.9375 -8.75 L 5.9375 -7.75 L 2.375 -7.75 L 2.375 -5.609375 C 2.550781 -5.671875 2.722656 -5.710938 2.890625 -5.734375 C 3.066406 -5.765625 3.238281 -5.78125 3.40625 -5.78125 C 4.382812 -5.78125 5.160156 -5.507812 5.734375 -4.96875 C 6.304688 -4.4375 6.59375 -3.71875 6.59375 -2.8125 C 6.59375 -1.863281 6.296875 -1.128906 5.703125 -0.609375 C 5.117188 -0.0859375 4.296875 0.171875 3.234375 0.171875 C 2.859375 0.171875 2.476562 0.140625 2.09375 0.078125 C 1.71875 0.015625 1.328125 -0.078125 0.921875 -0.203125 L 0.921875 -1.390625 C 1.273438 -1.203125 1.640625 -1.0625 2.015625 -0.96875 C 2.390625 -0.875 2.785156 -0.828125 3.203125 -0.828125 C 3.878906 -0.828125 4.414062 -1.003906 4.8125 -1.359375 C 5.207031 -1.710938 5.40625 -2.195312 5.40625 -2.8125 C 5.40625 -3.414062 5.207031 -3.894531 4.8125 -4.25 C 4.414062 -4.601562 3.878906 -4.78125 3.203125 -4.78125 C 2.890625 -4.78125 2.570312 -4.742188 2.25 -4.671875 C 1.9375 -4.609375 1.617188 -4.503906 1.296875 -4.359375 Z M 1.296875 -8.75 "/>
</symbol>
<symbol overflow="visible" id="cdISqWsS2-0">
<path style="stroke:none;" d="M 0.59375 2.125 L 0.59375 -8.46875 L 6.59375 -8.46875 L 6.59375 2.125 Z M 1.265625 1.453125 L 5.9375 1.453125 L 5.9375 -7.78125 L 1.265625 -7.78125 Z M 1.265625 1.453125 "/>
</symbol>
<symbol overflow="visible" id="cdISqWsS2-1">
<path style="stroke:none;" d="M 1.484375 -1 L 3.421875 -1 L 3.421875 -7.671875 L 1.3125 -7.25 L 1.3125 -8.328125 L 3.40625 -8.75 L 4.59375 -8.75 L 4.59375 -1 L 6.53125 -1 L 6.53125 0 L 1.484375 0 Z M 1.484375 -1 "/>
</symbol>
<symbol overflow="visible" id="cdISqWsS3-0">
<path style="stroke:none;" d="M 0.59375 2.125 L 0.59375 -8.46875 L 6.59375 -8.46875 L 6.59375 2.125 Z M 1.265625 1.453125 L 5.9375 1.453125 L 5.9375 -7.78125 L 1.265625 -7.78125 Z M 1.265625 1.453125 "/>
</symbol>
<symbol overflow="visible" id="cdISqWsS3-1">
<path style="stroke:none;" d="M 3.8125 -7.96875 C 3.207031 -7.96875 2.75 -7.664062 2.4375 -7.0625 C 2.132812 -6.46875 1.984375 -5.566406 1.984375 -4.359375 C 1.984375 -3.160156 2.132812 -2.257812 2.4375 -1.65625 C 2.75 -1.0625 3.207031 -0.765625 3.8125 -0.765625 C 4.425781 -0.765625 4.882812 -1.0625 5.1875 -1.65625 C 5.5 -2.257812 5.65625 -3.160156 5.65625 -4.359375 C 5.65625 -5.566406 5.5 -6.46875 5.1875 -7.0625 C 4.882812 -7.664062 4.425781 -7.96875 3.8125 -7.96875 Z M 3.8125 -8.90625 C 4.789062 -8.90625 5.539062 -8.515625 6.0625 -7.734375 C 6.582031 -6.960938 6.84375 -5.835938 6.84375 -4.359375 C 6.84375 -2.890625 6.582031 -1.765625 6.0625 -0.984375 C 5.539062 -0.210938 4.789062 0.171875 3.8125 0.171875 C 2.832031 0.171875 2.082031 -0.210938 1.5625 -0.984375 C 1.050781 -1.765625 0.796875 -2.890625 0.796875 -4.359375 C 0.796875 -5.835938 1.050781 -6.960938 1.5625 -7.734375 C 2.082031 -8.515625 2.832031 -8.90625 3.8125 -8.90625 Z M 3.8125 -8.90625 "/>
</symbol>
<symbol overflow="visible" id="cdISqWsS4-0">
<path style="stroke:none;" d="M 0.59375 2.125 L 0.59375 -8.46875 L 6.59375 -8.46875 L 6.59375 2.125 Z M 1.265625 1.453125 L 5.9375 1.453125 L 5.9375 -7.78125 L 1.265625 -7.78125 Z M 1.265625 1.453125 "/>
</symbol>
<symbol overflow="visible" id="cdISqWsS4-1">
<path style="stroke:none;" d="M 2.296875 -1 L 6.4375 -1 L 6.4375 0 L 0.875 0 L 0.875 -1 C 1.320312 -1.457031 1.929688 -2.078125 2.703125 -2.859375 C 3.484375 -3.648438 3.972656 -4.160156 4.171875 -4.390625 C 4.554688 -4.804688 4.820312 -5.160156 4.96875 -5.453125 C 5.125 -5.753906 5.203125 -6.046875 5.203125 -6.328125 C 5.203125 -6.796875 5.035156 -7.175781 4.703125 -7.46875 C 4.378906 -7.757812 3.957031 -7.90625 3.4375 -7.90625 C 3.0625 -7.90625 2.664062 -7.84375 2.25 -7.71875 C 1.84375 -7.59375 1.40625 -7.394531 0.9375 -7.125 L 0.9375 -8.328125 C 1.414062 -8.515625 1.859375 -8.65625 2.265625 -8.75 C 2.679688 -8.851562 3.0625 -8.90625 3.40625 -8.90625 C 4.3125 -8.90625 5.035156 -8.675781 5.578125 -8.21875 C 6.117188 -7.769531 6.390625 -7.164062 6.390625 -6.40625 C 6.390625 -6.050781 6.320312 -5.710938 6.1875 -5.390625 C 6.050781 -5.066406 5.804688 -4.6875 5.453125 -4.25 C 5.347656 -4.132812 5.035156 -3.804688 4.515625 -3.265625 C 3.992188 -2.722656 3.253906 -1.96875 2.296875 -1 Z M 2.296875 -1 "/>
</symbol>
<symbol overflow="visible" id="cdISqWsS5-0">
<path style="stroke:none;" d="M 0.59375 2.125 L 0.59375 -8.46875 L 6.59375 -8.46875 L 6.59375 2.125 Z M 1.265625 1.453125 L 5.9375 1.453125 L 5.9375 -7.78125 L 1.265625 -7.78125 Z M 1.265625 1.453125 "/>
</symbol>
<symbol overflow="visible" id="cdISqWsS5-1">
<path style="stroke:none;" d="M 3.8125 -7.96875 C 3.207031 -7.96875 2.75 -7.664062 2.4375 -7.0625 C 2.132812 -6.46875 1.984375 -5.566406 1.984375 -4.359375 C 1.984375 -3.160156 2.132812 -2.257812 2.4375 -1.65625 C 2.75 -1.0625 3.207031 -0.765625 3.8125 -0.765625 C 4.425781 -0.765625 4.882812 -1.0625 5.1875 -1.65625 C 5.5 -2.257812 5.65625 -3.160156 5.65625 -4.359375 C 5.65625 -5.566406 5.5 -6.46875 5.1875 -7.0625 C 4.882812 -7.664062 4.425781 -7.96875 3.8125 -7.96875 Z M 3.8125 -8.90625 C 4.789062 -8.90625 5.539062 -8.515625 6.0625 -7.734375 C 6.582031 -6.960938 6.84375 -5.835938 6.84375 -4.359375 C 6.84375 -2.890625 6.582031 -1.765625 6.0625 -0.984375 C 5.539062 -0.210938 4.789062 0.171875 3.8125 0.171875 C 2.832031 0.171875 2.082031 -0.210938 1.5625 -0.984375 C 1.050781 -1.765625 0.796875 -2.890625 0.796875 -4.359375 C 0.796875 -5.835938 1.050781 -6.960938 1.5625 -7.734375 C 2.082031 -8.515625 2.832031 -8.90625 3.8125 -8.90625 Z M 3.8125 -8.90625 "/>
</symbol>
<symbol overflow="visible" id="cdISqWsS6-0">
<path style="stroke:none;" d="M 0.59375 2.125 L 0.59375 -8.46875 L 6.59375 -8.46875 L 6.59375 2.125 Z M 1.265625 1.453125 L 5.9375 1.453125 L 5.9375 -7.78125 L 1.265625 -7.78125 Z M 1.265625 1.453125 "/>
</symbol>
<symbol overflow="visible" id="cdISqWsS6-1">
<path style="stroke:none;" d="M 2.296875 -1 L 6.4375 -1 L 6.4375 0 L 0.875 0 L 0.875 -1 C 1.320312 -1.457031 1.929688 -2.078125 2.703125 -2.859375 C 3.484375 -3.648438 3.972656 -4.160156 4.171875 -4.390625 C 4.554688 -4.804688 4.820312 -5.160156 4.96875 -5.453125 C 5.125 -5.753906 5.203125 -6.046875 5.203125 -6.328125 C 5.203125 -6.796875 5.035156 -7.175781 4.703125 -7.46875 C 4.378906 -7.757812 3.957031 -7.90625 3.4375 -7.90625 C 3.0625 -7.90625 2.664062 -7.84375 2.25 -7.71875 C 1.84375 -7.59375 1.40625 -7.394531 0.9375 -7.125 L 0.9375 -8.328125 C 1.414062 -8.515625 1.859375 -8.65625 2.265625 -8.75 C 2.679688 -8.851562 3.0625 -8.90625 3.40625 -8.90625 C 4.3125 -8.90625 5.035156 -8.675781 5.578125 -8.21875 C 6.117188 -7.769531 6.390625 -7.164062 6.390625 -6.40625 C 6.390625 -6.050781 6.320312 -5.710938 6.1875 -5.390625 C 6.050781 -5.066406 5.804688 -4.6875 5.453125 -4.25 C 5.347656 -4.132812 5.035156 -3.804688 4.515625 -3.265625 C 3.992188 -2.722656 3.253906 -1.96875 2.296875 -1 Z M 2.296875 -1 "/>
</symbol>
</g>
<clipPath id="clip1">
  <path d="M 30 97 L 588 97 L 588 267 L 30 267 Z M 30 97 "/>
</clipPath>
</defs>
<g id="surface1">
<rect x="0" y="0" width="600" height="450" style="fill:rgb(100%,100%,100%);fill-opacity:1;stroke:none;"/>
<path style=" stroke:none;fill-rule:nonzero;fill:rgb(100%,100%,100%);fill-opacity:1;" d="M 30 417.75 L 588 417.75 L 588 12 L 30 12 Z M 30 417.75 "/>
<path style="fill:none;stroke-width:1;stroke-linecap:butt;stroke-linejoin:miter;stroke:rgb(0%,0%,0%);stroke-opacity:0.12;stroke-miterlimit:10;" d="M 40 557 L 40 16 " transform="matrix(0.75,0,0,0.75,0,0)"/>
<path style="fill:none;stroke-width:1;stroke-linecap:butt;stroke-linejoin:miter;stroke:rgb(0%,0%,0%);stroke-opacity:0.12;stroke-miterlimit:10;" d="M 412 557 L 412 16 " transform="matrix(0.75,0,0,0.75,0,0)"/>
<path style="fill:none;stroke-width:1;stroke-linecap:butt;stroke-linejoin:miter;stroke:rgb(0%,0%,0%);stroke-opacity:0.12;stroke-miterlimit:10;" d="M 784 557 L 784 16 " transform="matrix(0.75,0,0,0.75,0,0)"/>
<path style="fill:none;stroke-width:1;stroke-linecap:butt;stroke-linejoin:miter;stroke:rgb(0%,0%,0%);stroke-opacity:0.12;stroke-miterlimit:10;" d="M 40 448.380208 L 784 448.380208 " transform="matrix(0.75,0,0,0.75,0,0)"/>
<path style="fill:none;stroke-width:1;stroke-linecap:butt;stroke-linejoin:miter;stroke:rgb(0%,0%,0%);stroke-opacity:0.12;stroke-miterlimit:10;" d="M 40 279.755208 L 784 279.755208 " transform="matrix(0.75,0,0,0.75,0,0)"/>
<path style="fill:none;stroke-width:1;stroke-linecap:butt;stroke-linejoin:miter;stroke:rgb(0%,0%,0%);stroke-opacity:0.12;stroke-miterlimit:10;" d="M 40 111.135417 L 784 111.135417 " transform="matrix(0.75,0,0,0.75,0,0)"/>
<g style="fill:rgb(0%,0%,0%);fill-opacity:1;">
  <use xlink:href="#cdISqWsS0-1" x="26.582031" y="435.640625"/>
</g>
<g style="fill:rgb(0%,0%,0%);fill-opacity:1;">
  <use xlink:href="#cdISqWsS1-1" x="305.707031" y="435.640625"/>
</g>
<g style="fill:rgb(0%,0%,0%);fill-opacity:1;">
  <use xlink:href="#cdISqWsS2-1" x="580.5" y="435.640625"/>
</g>
<g style="fill:rgb(0%,0%,0%);fill-opacity:1;">
  <use xlink:href="#cdISqWsS3-1" x="588.132812" y="435.640625"/>
</g>
<g style="fill:rgb(0%,0%,0%);fill-opacity:1;">
  <use xlink:href="#cdISqWsS0-2" x="11.867188" y="340.4375"/>
</g>
<g style="fill:rgb(0%,0%,0%);fill-opacity:1;">
  <use xlink:href="#cdISqWsS4-1" x="16.195312" y="340.4375"/>
</g>
<g style="fill:rgb(0%,0%,0%);fill-opacity:1;">
  <use xlink:href="#cdISqWsS5-1" x="15.703125" y="213.972656"/>
</g>
<g style="fill:rgb(0%,0%,0%);fill-opacity:1;">
  <use xlink:href="#cdISqWsS6-1" x="16.195312" y="87.503906"/>
</g>
<path style=" stroke:none;fill-rule:nonzero;fill:rgb(21.600001%,49.399999%,72.2%);fill-opacity:0.2;" d="M 30 30.441406 L 30.558594 30.726562 L 31.117188 31.015625 L 31.675781 31.3125 L 32.230469 31.617188 L 32.789062 31.925781 L 33.347656 32.246094 L 33.90625 32.570312 L 34.464844 32.902344 L 35.023438 33.242188 L 35.578125 33.589844 L 36.136719 33.945312 L 36.695312 34.308594 L 37.253906 34.679688 L 37.8125 35.058594 L 38.371094 35.449219 L 38.929688 35.84375 L 39.484375 36.25 L 40.042969 36.660156 L 40.601562 37.082031 L 41.160156 37.515625 L 41.71875 37.953125 L 42.277344 38.402344 L 42.835938 38.859375 L 43.390625 39.328125 L 43.949219 39.804688 L 44.507812 40.289062 L 45.066406 40.785156 L 45.625 41.289062 L 46.183594 41.804688 L 46.738281 42.332031 L 47.296875 42.863281 L 47.855469 43.410156 L 48.414062 43.964844 L 48.972656 44.53125 L 49.53125 45.105469 L 50.089844 45.691406 L 50.644531 46.285156 L 51.203125 46.894531 L 51.761719 47.511719 L 52.320312 48.140625 L 52.878906 48.777344 L 53.4375 49.425781 L 53.992188 50.085938 L 54.550781 50.757812 L 55.109375 51.441406 L 55.667969 52.132812 L 56.226562 52.839844 L 56.785156 53.554688 L 57.34375 54.28125 L 57.898438 55.019531 L 58.457031 55.765625 L 59.015625 56.527344 L 59.574219 57.300781 L 60.132812 58.082031 L 60.691406 58.875 L 61.246094 59.679688 L 61.804688 60.496094 L 62.363281 61.324219 L 62.921875 62.164062 L 63.480469 63.015625 L 64.039062 63.875 L 64.597656 64.75 L 65.152344 65.632812 L 65.710938 66.527344 L 66.269531 67.433594 L 66.828125 68.351562 L 67.386719 69.28125 L 67.945312 70.21875 L 68.503906 71.171875 L 69.058594 72.132812 L 69.617188 73.105469 L 70.175781 74.085938 L 70.734375 75.078125 L 71.292969 76.082031 L 71.851562 77.097656 L 72.40625 78.121094 L 72.964844 79.15625 L 73.523438 80.203125 L 74.082031 81.257812 L 74.640625 82.320312 L 75.199219 83.394531 L 75.757812 84.480469 L 76.3125 85.570312 L 76.871094 86.675781 L 77.429688 87.785156 L 77.988281 88.90625 L 78.546875 90.035156 L 79.105469 91.175781 L 79.660156 92.320312 L 80.21875 93.476562 L 80.777344 94.636719 L 81.335938 95.808594 L 81.894531 96.988281 L 82.453125 98.171875 L 83.011719 99.367188 L 83.566406 100.566406 L 84.125 101.773438 L 84.683594 102.984375 L 85.800781 105.429688 L 86.359375 106.664062 L 86.914062 107.898438 L 87.472656 109.140625 L 88.589844 111.640625 L 89.148438 112.898438 L 90.265625 115.421875 L 90.820312 116.691406 L 91.9375 119.238281 L 92.496094 120.515625 L 94.171875 124.359375 L 94.726562 125.644531 L 95.285156 126.933594 L 95.84375 128.21875 L 96.960938 130.796875 L 97.519531 132.082031 L 98.074219 133.371094 L 99.75 137.226562 L 100.867188 139.789062 L 101.425781 141.066406 L 101.980469 142.339844 L 103.097656 144.878906 L 103.65625 146.140625 L 104.214844 147.398438 L 104.773438 148.652344 L 105.328125 149.902344 L 105.886719 151.144531 L 106.445312 152.382812 L 107.003906 153.617188 L 107.5625 154.839844 L 108.121094 156.058594 L 108.679688 157.269531 L 109.234375 158.472656 L 109.792969 159.667969 L 110.351562 160.851562 L 110.910156 162.03125 L 111.46875 163.199219 L 112.027344 164.359375 L 112.585938 165.507812 L 113.140625 166.644531 L 113.699219 167.773438 L 114.257812 168.890625 L 114.816406 169.996094 L 115.375 171.089844 L 115.933594 172.171875 L 116.488281 173.242188 L 117.046875 174.296875 L 117.605469 175.339844 L 118.164062 176.371094 L 118.722656 177.382812 L 119.28125 178.386719 L 119.839844 179.371094 L 120.394531 180.34375 L 120.953125 181.296875 L 121.511719 182.238281 L 122.070312 183.160156 L 122.628906 184.066406 L 123.1875 184.957031 L 123.742188 185.828125 L 124.300781 186.683594 L 124.859375 187.519531 L 125.417969 188.335938 L 125.976562 189.136719 L 126.535156 189.914062 L 127.09375 190.671875 L 127.648438 191.414062 L 128.207031 192.132812 L 128.765625 192.828125 L 129.324219 193.503906 L 129.882812 194.15625 L 130.441406 194.789062 L 130.996094 195.398438 L 131.554688 195.980469 L 132.113281 196.542969 L 132.671875 197.078125 L 133.230469 197.589844 L 133.789062 198.078125 L 134.347656 198.539062 L 134.902344 198.972656 L 135.460938 199.382812 L 136.019531 199.761719 L 136.578125 200.113281 L 137.136719 200.4375 L 137.695312 200.734375 L 138.253906 201 L 138.808594 201.234375 L 139.367188 201.441406 L 139.925781 201.613281 L 140.484375 201.757812 L 141.042969 201.871094 L 141.601562 201.953125 L 142.15625 202 L 142.714844 202.019531 L 143.273438 202.003906 L 143.832031 201.957031 L 144.390625 201.882812 L 144.949219 201.773438 L 145.507812 201.632812 L 146.0625 201.460938 L 146.621094 201.261719 L 147.179688 201.035156 L 147.738281 200.777344 L 148.296875 200.496094 L 148.855469 200.183594 L 149.410156 199.851562 L 149.96875 199.492188 L 150.527344 199.109375 L 151.085938 198.710938 L 151.644531 198.289062 L 152.203125 197.847656 L 152.761719 197.390625 L 153.316406 196.917969 L 153.875 196.425781 L 154.433594 195.925781 L 154.992188 195.410156 L 155.550781 194.886719 L 156.109375 194.351562 L 156.664062 193.804688 L 157.222656 193.25 L 157.78125 192.691406 L 158.339844 192.125 L 159.457031 190.976562 L 160.015625 190.394531 L 160.570312 189.808594 L 161.128906 189.222656 L 161.6875 188.632812 L 163.921875 186.257812 L 164.476562 185.664062 L 165.035156 185.066406 L 167.269531 182.691406 L 167.824219 182.097656 L 169.5 180.328125 L 170.058594 179.742188 L 170.617188 179.152344 L 171.175781 178.566406 L 171.730469 177.984375 L 172.289062 177.398438 L 172.847656 176.816406 L 173.40625 176.230469 L 173.964844 175.648438 L 174.523438 175.0625 L 175.078125 174.480469 L 175.636719 173.894531 L 176.195312 173.3125 L 176.753906 172.722656 L 177.3125 172.136719 L 178.429688 170.949219 L 178.984375 170.355469 L 179.542969 169.753906 L 180.101562 169.148438 L 180.660156 168.539062 L 181.21875 167.925781 L 181.777344 167.304688 L 182.335938 166.675781 L 182.890625 166.039062 L 183.449219 165.394531 L 184.007812 164.742188 L 184.566406 164.082031 L 185.125 163.40625 L 185.683594 162.722656 L 186.238281 162.027344 L 186.796875 161.320312 L 187.355469 160.597656 L 187.914062 159.863281 L 188.472656 159.113281 L 189.03125 158.347656 L 189.589844 157.566406 L 190.144531 156.769531 L 190.703125 155.957031 L 191.261719 155.128906 L 191.820312 154.28125 L 192.378906 153.414062 L 192.9375 152.535156 L 193.492188 151.632812 L 194.050781 150.714844 L 194.609375 149.78125 L 195.167969 148.828125 L 195.726562 147.859375 L 196.285156 146.875 L 196.84375 145.871094 L 197.398438 144.851562 L 197.957031 143.820312 L 198.515625 142.769531 L 199.074219 141.707031 L 199.632812 140.628906 L 200.191406 139.535156 L 200.746094 138.433594 L 201.304688 137.316406 L 201.863281 136.191406 L 202.421875 135.050781 L 202.980469 133.902344 L 203.539062 132.746094 L 204.097656 131.578125 L 204.652344 130.402344 L 205.210938 129.222656 L 205.769531 128.035156 L 206.328125 126.839844 L 206.886719 125.640625 L 207.445312 124.4375 L 208.003906 123.230469 L 208.558594 122.019531 L 211.351562 115.945312 L 211.90625 114.730469 L 213.023438 112.308594 L 213.582031 111.101562 L 214.140625 109.898438 L 214.699219 108.699219 L 215.257812 107.503906 L 215.8125 106.3125 L 216.371094 105.132812 L 216.929688 103.957031 L 217.488281 102.789062 L 218.046875 101.628906 L 218.605469 100.476562 L 219.160156 99.335938 L 219.71875 98.203125 L 220.277344 97.082031 L 220.835938 95.96875 L 221.394531 94.871094 L 221.953125 93.785156 L 222.511719 92.710938 L 223.066406 91.652344 L 223.625 90.605469 L 224.183594 89.574219 L 224.742188 88.554688 L 225.300781 87.554688 L 225.859375 86.570312 L 226.414062 85.601562 L 226.972656 84.648438 L 227.53125 83.714844 L 228.089844 82.800781 L 228.648438 81.902344 L 229.207031 81.027344 L 229.765625 80.167969 L 230.320312 79.332031 L 230.878906 78.511719 L 231.4375 77.71875 L 231.996094 76.941406 L 232.554688 76.191406 L 233.113281 75.460938 L 233.671875 74.753906 L 234.226562 74.066406 L 234.785156 73.40625 L 235.34375 72.769531 L 235.902344 72.160156 L 236.460938 71.570312 L 237.019531 71.007812 L 237.574219 70.472656 L 238.132812 69.960938 L 238.691406 69.476562 L 239.25 69.019531 L 239.808594 68.585938 L 240.367188 68.183594 L 240.925781 67.804688 L 241.480469 67.453125 L 242.039062 67.132812 L 242.597656 66.839844 L 243.15625 66.570312 L 243.714844 66.335938 L 244.273438 66.125 L 244.828125 65.945312 L 245.386719 65.792969 L 245.945312 65.671875 L 246.503906 65.578125 L 247.0625 65.515625 L 247.621094 65.484375 L 248.179688 65.476562 L 248.734375 65.503906 L 249.292969 65.558594 L 249.851562 65.644531 L 250.410156 65.757812 L 250.96875 65.902344 L 251.527344 66.074219 L 252.085938 66.277344 L 252.640625 66.511719 L 253.199219 66.773438 L 253.757812 67.066406 L 254.316406 67.386719 L 254.875 67.738281 L 255.433594 68.117188 L 255.988281 68.527344 L 256.546875 68.964844 L 257.105469 69.429688 L 257.664062 69.925781 L 258.222656 70.445312 L 258.78125 70.996094 L 259.339844 71.574219 L 259.894531 72.179688 L 260.453125 72.8125 L 261.011719 73.472656 L 261.570312 74.15625 L 262.128906 74.871094 L 262.6875 75.605469 L 263.242188 76.367188 L 263.800781 77.15625 L 264.359375 77.964844 L 264.917969 78.800781 L 265.476562 79.65625 L 266.035156 80.535156 L 266.59375 81.4375 L 267.148438 82.363281 L 267.707031 83.304688 L 268.265625 84.269531 L 268.824219 85.25 L 269.382812 86.253906 L 269.941406 87.269531 L 270.496094 88.308594 L 271.054688 89.359375 L 271.613281 90.425781 L 272.171875 91.503906 L 272.730469 92.597656 L 273.289062 93.703125 L 273.847656 94.820312 L 274.402344 95.945312 L 274.960938 97.078125 L 275.519531 98.21875 L 276.636719 100.515625 L 277.753906 102.828125 L 278.308594 103.980469 L 278.867188 105.136719 L 279.984375 107.433594 L 280.542969 108.570312 L 281.101562 109.703125 L 281.65625 110.824219 L 282.214844 111.933594 L 282.773438 113.027344 L 283.332031 114.113281 L 283.890625 115.179688 L 284.449219 116.226562 L 285.007812 117.261719 L 285.5625 118.273438 L 286.121094 119.265625 L 286.679688 120.242188 L 287.238281 121.195312 L 287.796875 122.128906 L 288.355469 123.042969 L 288.910156 123.9375 L 289.46875 124.8125 L 290.027344 125.671875 L 290.585938 126.511719 L 291.144531 127.335938 L 291.703125 128.148438 L 292.261719 128.949219 L 292.816406 129.734375 L 293.375 130.511719 L 293.933594 131.28125 L 294.492188 132.042969 L 295.050781 132.800781 L 295.609375 133.554688 L 296.164062 134.304688 L 296.722656 135.050781 L 297.839844 136.550781 L 298.957031 138.058594 L 299.515625 138.820312 L 300.070312 139.585938 L 300.628906 140.359375 L 301.1875 141.140625 L 301.746094 141.925781 L 302.304688 142.722656 L 302.863281 143.527344 L 303.421875 144.339844 L 303.976562 145.164062 L 304.535156 145.996094 L 305.09375 146.839844 L 305.652344 147.699219 L 306.210938 148.5625 L 306.769531 149.441406 L 307.324219 150.332031 L 307.882812 151.234375 L 308.441406 152.148438 L 309 153.074219 L 309.558594 154.011719 L 310.117188 154.964844 L 310.675781 155.925781 L 311.230469 156.898438 L 311.789062 157.886719 L 312.347656 158.886719 L 312.90625 159.894531 L 313.464844 160.917969 L 314.023438 161.953125 L 314.578125 162.996094 L 315.136719 164.054688 L 315.695312 165.121094 L 316.253906 166.199219 L 316.8125 167.289062 L 317.371094 168.386719 L 317.929688 169.496094 L 318.484375 170.617188 L 319.042969 171.746094 L 319.601562 172.882812 L 320.160156 174.03125 L 320.71875 175.183594 L 321.277344 176.347656 L 321.835938 177.519531 L 322.390625 178.699219 L 322.949219 179.886719 L 323.507812 181.078125 L 324.066406 182.277344 L 324.625 183.484375 L 325.183594 184.695312 L 325.738281 185.910156 L 326.296875 187.128906 L 327.414062 189.582031 L 328.53125 192.050781 L 329.089844 193.289062 L 329.644531 194.527344 L 330.203125 195.765625 L 332.4375 200.734375 L 332.992188 201.972656 L 333.550781 203.210938 L 334.109375 204.445312 L 335.226562 206.90625 L 335.785156 208.128906 L 336.34375 209.347656 L 336.898438 210.5625 L 337.457031 211.769531 L 338.015625 212.96875 L 338.574219 214.160156 L 339.132812 215.34375 L 339.691406 216.515625 L 340.246094 217.675781 L 340.804688 218.828125 L 341.363281 219.964844 L 341.921875 221.085938 L 342.480469 222.191406 L 343.039062 223.28125 L 343.597656 224.351562 L 344.152344 225.402344 L 344.710938 226.433594 L 345.269531 227.433594 L 345.828125 228.414062 L 346.386719 229.359375 L 346.945312 230.277344 L 347.503906 231.15625 L 348.058594 232 L 348.617188 232.800781 L 349.175781 233.558594 L 349.734375 234.265625 L 350.292969 234.917969 L 350.851562 235.511719 L 351.40625 236.046875 L 351.964844 236.515625 L 352.523438 236.917969 L 353.082031 237.253906 L 353.640625 237.511719 L 354.199219 237.703125 L 354.757812 237.820312 L 355.3125 237.867188 L 355.871094 237.84375 L 356.429688 237.753906 L 356.988281 237.601562 L 357.546875 237.390625 L 358.105469 237.121094 L 358.660156 236.796875 L 359.21875 236.425781 L 359.777344 236.003906 L 360.335938 235.542969 L 360.894531 235.039062 L 361.453125 234.496094 L 362.011719 233.917969 L 362.566406 233.308594 L 363.125 232.667969 L 363.683594 231.996094 L 364.242188 231.296875 L 364.800781 230.574219 L 365.359375 229.828125 L 365.914062 229.054688 L 366.472656 228.261719 L 367.03125 227.453125 L 367.589844 226.621094 L 368.148438 225.769531 L 368.707031 224.90625 L 369.265625 224.023438 L 369.820312 223.125 L 370.378906 222.214844 L 370.9375 221.289062 L 371.496094 220.351562 L 372.054688 219.40625 L 372.613281 218.445312 L 373.171875 217.476562 L 373.726562 216.5 L 374.285156 215.515625 L 374.84375 214.519531 L 375.402344 213.519531 L 375.960938 212.511719 L 376.519531 211.5 L 377.074219 210.480469 L 378.191406 208.433594 L 378.75 207.40625 L 379.867188 205.34375 L 380.425781 204.308594 L 380.980469 203.273438 L 383.214844 199.148438 L 383.773438 198.125 L 384.328125 197.101562 L 384.886719 196.082031 L 385.445312 195.066406 L 386.003906 194.058594 L 386.5625 193.054688 L 387.121094 192.058594 L 387.679688 191.070312 L 388.234375 190.085938 L 388.792969 189.113281 L 389.351562 188.144531 L 389.910156 187.1875 L 390.46875 186.242188 L 391.027344 185.304688 L 391.585938 184.375 L 392.140625 183.460938 L 392.699219 182.558594 L 393.257812 181.664062 L 393.816406 180.785156 L 394.375 179.921875 L 394.933594 179.070312 L 395.488281 178.230469 L 396.046875 177.40625 L 396.605469 176.597656 L 397.164062 175.808594 L 397.722656 175.03125 L 398.28125 174.269531 L 398.839844 173.527344 L 399.394531 172.800781 L 399.953125 172.089844 L 400.511719 171.398438 L 401.070312 170.726562 L 401.628906 170.070312 L 402.1875 169.4375 L 402.742188 168.820312 L 403.300781 168.226562 L 403.859375 167.648438 L 404.417969 167.09375 L 404.976562 166.558594 L 405.535156 166.042969 L 406.09375 165.550781 L 406.648438 165.078125 L 407.207031 164.628906 L 407.765625 164.203125 L 408.324219 163.796875 L 408.882812 163.414062 L 409.441406 163.050781 L 409.996094 162.714844 L 410.554688 162.398438 L 411.113281 162.105469 L 411.671875 161.835938 L 412.230469 161.589844 L 412.789062 161.367188 L 413.347656 161.167969 L 413.902344 160.992188 L 414.460938 160.839844 L 415.019531 160.710938 L 415.578125 160.609375 L 416.136719 160.527344 L 416.695312 160.46875 L 417.253906 160.4375 L 417.808594 160.429688 L 418.367188 160.441406 L 418.925781 160.480469 L 419.484375 160.542969 L 420.042969 160.628906 L 420.601562 160.738281 L 421.15625 160.871094 L 421.714844 161.023438 L 422.273438 161.203125 L 422.832031 161.40625 L 423.390625 161.628906 L 423.949219 161.878906 L 424.507812 162.148438 L 425.0625 162.441406 L 425.621094 162.753906 L 426.179688 163.089844 L 426.738281 163.449219 L 427.296875 163.828125 L 427.855469 164.230469 L 428.410156 164.648438 L 428.96875 165.09375 L 429.527344 165.554688 L 430.085938 166.035156 L 430.644531 166.539062 L 431.203125 167.058594 L 431.761719 167.597656 L 432.316406 168.15625 L 432.875 168.734375 L 433.433594 169.328125 L 433.992188 169.941406 L 434.550781 170.570312 L 435.109375 171.214844 L 435.664062 171.875 L 436.222656 172.550781 L 436.78125 173.242188 L 437.339844 173.949219 L 437.898438 174.671875 L 438.457031 175.402344 L 439.015625 176.152344 L 439.570312 176.910156 L 440.128906 177.679688 L 440.6875 178.464844 L 441.246094 179.253906 L 441.804688 180.058594 L 442.363281 180.871094 L 442.921875 181.691406 L 443.476562 182.519531 L 444.59375 184.199219 L 445.710938 185.902344 L 446.269531 186.761719 L 446.824219 187.625 L 447.382812 188.488281 L 449.617188 191.957031 L 450.175781 192.820312 L 450.730469 193.683594 L 451.289062 194.539062 L 451.847656 195.390625 L 452.40625 196.238281 L 452.964844 197.078125 L 453.523438 197.90625 L 454.078125 198.726562 L 454.636719 199.539062 L 455.195312 200.335938 L 455.753906 201.117188 L 456.3125 201.886719 L 456.871094 202.640625 L 457.429688 203.375 L 457.984375 204.089844 L 458.542969 204.789062 L 459.101562 205.460938 L 459.660156 206.113281 L 460.21875 206.742188 L 460.777344 207.347656 L 461.335938 207.929688 L 461.890625 208.484375 L 462.449219 209.011719 L 463.007812 209.515625 L 463.566406 209.992188 L 464.125 210.441406 L 464.683594 210.867188 L 465.238281 211.265625 L 465.796875 211.644531 L 466.355469 211.996094 L 466.914062 212.332031 L 467.472656 212.644531 L 468.03125 212.9375 L 468.589844 213.214844 L 469.144531 213.472656 L 469.703125 213.71875 L 470.261719 213.953125 L 470.820312 214.175781 L 471.378906 214.386719 L 471.9375 214.59375 L 472.492188 214.789062 L 473.050781 214.980469 L 473.609375 215.167969 L 474.167969 215.351562 L 475.285156 215.710938 L 475.84375 215.886719 L 476.398438 216.066406 L 476.957031 216.246094 L 478.632812 216.796875 L 479.75 217.179688 L 480.304688 217.375 L 481.421875 217.78125 L 481.980469 217.992188 L 482.539062 218.207031 L 483.097656 218.425781 L 483.652344 218.652344 L 484.210938 218.882812 L 484.769531 219.117188 L 485.328125 219.355469 L 485.886719 219.597656 L 486.445312 219.847656 L 487 220.097656 L 487.558594 220.355469 L 488.675781 220.878906 L 489.234375 221.144531 L 490.351562 221.683594 L 490.90625 221.957031 L 491.464844 222.226562 L 492.023438 222.5 L 493.140625 223.039062 L 493.699219 223.304688 L 494.257812 223.566406 L 494.8125 223.820312 L 495.371094 224.070312 L 495.929688 224.3125 L 496.488281 224.546875 L 497.046875 224.769531 L 497.605469 224.980469 L 498.160156 225.175781 L 498.71875 225.359375 L 499.277344 225.523438 L 499.835938 225.671875 L 500.394531 225.796875 L 500.953125 225.898438 L 501.511719 225.976562 L 502.066406 226.03125 L 502.625 226.054688 L 503.183594 226.050781 L 503.742188 226.015625 L 504.300781 225.949219 L 504.859375 225.84375 L 505.417969 225.707031 L 505.972656 225.53125 L 506.53125 225.320312 L 507.089844 225.070312 L 507.648438 224.785156 L 508.207031 224.457031 L 508.765625 224.089844 L 509.320312 223.6875 L 509.878906 223.242188 L 510.4375 222.757812 L 510.996094 222.238281 L 511.554688 221.679688 L 512.113281 221.082031 L 512.671875 220.449219 L 513.226562 219.777344 L 513.785156 219.074219 L 514.34375 218.335938 L 514.902344 217.566406 L 515.460938 216.761719 L 516.019531 215.925781 L 516.574219 215.058594 L 517.132812 214.160156 L 517.691406 213.234375 L 518.25 212.277344 L 518.808594 211.296875 L 519.367188 210.289062 L 519.925781 209.253906 L 520.480469 208.191406 L 521.039062 207.109375 L 521.597656 206 L 522.15625 204.871094 L 522.714844 203.71875 L 523.273438 202.542969 L 523.828125 201.351562 L 524.386719 200.136719 L 524.945312 198.902344 L 525.503906 197.648438 L 526.0625 196.378906 L 526.621094 195.09375 L 527.179688 193.789062 L 527.734375 192.46875 L 528.292969 191.132812 L 528.851562 189.78125 L 529.410156 188.417969 L 529.96875 187.039062 L 530.527344 185.648438 L 531.082031 184.242188 L 531.640625 182.828125 L 532.199219 181.402344 L 532.757812 179.960938 L 533.316406 178.515625 L 533.875 177.054688 L 534.433594 175.589844 L 534.988281 174.113281 L 535.546875 172.628906 L 536.105469 171.136719 L 536.664062 169.636719 L 537.222656 168.132812 L 537.78125 166.621094 L 538.339844 165.101562 L 538.894531 163.578125 L 539.453125 162.050781 L 540.011719 160.519531 L 540.570312 158.984375 L 541.6875 155.90625 L 542.242188 154.363281 L 545.035156 146.628906 L 545.59375 145.078125 L 546.148438 143.53125 L 546.707031 141.988281 L 547.265625 140.441406 L 547.824219 138.902344 L 548.382812 137.359375 L 548.941406 135.824219 L 549.5 134.292969 L 550.054688 132.761719 L 550.613281 131.234375 L 551.730469 128.195312 L 552.289062 126.683594 L 552.847656 125.179688 L 553.402344 123.679688 L 553.960938 122.183594 L 554.519531 120.695312 L 555.078125 119.214844 L 555.636719 117.742188 L 556.195312 116.273438 L 556.75 114.816406 L 557.308594 113.363281 L 557.867188 111.921875 L 558.425781 110.488281 L 558.984375 109.0625 L 559.542969 107.644531 L 560.101562 106.238281 L 560.65625 104.839844 L 561.214844 103.453125 L 561.773438 102.074219 L 562.332031 100.707031 L 562.890625 99.351562 L 563.449219 98.007812 L 564.007812 96.671875 L 564.5625 95.347656 L 565.121094 94.035156 L 565.679688 92.734375 L 566.238281 91.445312 L 566.796875 90.167969 L 567.355469 88.902344 L 567.910156 87.648438 L 568.46875 86.410156 L 569.027344 85.179688 L 569.585938 83.964844 L 570.144531 82.761719 L 570.703125 81.574219 L 571.261719 80.398438 L 571.816406 79.234375 L 572.375 78.082031 L 572.933594 76.945312 L 573.492188 75.820312 L 574.050781 74.710938 L 574.609375 73.613281 L 575.167969 72.53125 L 575.722656 71.460938 L 576.28125 70.402344 L 576.839844 69.359375 L 577.398438 68.332031 L 577.957031 67.316406 L 578.515625 66.316406 L 579.070312 65.328125 L 579.628906 64.355469 L 580.1875 63.394531 L 580.746094 62.449219 L 581.304688 61.519531 L 581.863281 60.601562 L 582.421875 59.695312 L 582.976562 58.804688 L 583.535156 57.925781 L 584.09375 57.0625 L 584.652344 56.214844 L 585.210938 55.378906 L 585.769531 54.554688 L 586.324219 53.746094 L 586.882812 52.953125 L 587.441406 52.171875 L 588 51.402344 L 588 383.605469 L 587.441406 383.15625 L 586.882812 382.703125 L 586.324219 382.234375 L 585.769531 381.761719 L 585.210938 381.277344 L 584.652344 380.785156 L 584.09375 380.285156 L 583.535156 379.773438 L 582.976562 379.253906 L 582.421875 378.722656 L 581.863281 378.183594 L 581.304688 377.632812 L 580.746094 377.078125 L 580.1875 376.507812 L 579.628906 375.933594 L 579.070312 375.34375 L 578.515625 374.75 L 577.957031 374.144531 L 577.398438 373.527344 L 576.839844 372.902344 L 576.28125 372.269531 L 575.722656 371.625 L 575.167969 370.96875 L 574.609375 370.304688 L 574.050781 369.632812 L 573.492188 368.949219 L 572.933594 368.257812 L 572.375 367.554688 L 571.816406 366.84375 L 571.261719 366.121094 L 570.703125 365.390625 L 570.144531 364.652344 L 569.585938 363.902344 L 569.027344 363.144531 L 568.46875 362.375 L 567.910156 361.597656 L 567.355469 360.8125 L 566.796875 360.015625 L 566.238281 359.210938 L 565.679688 358.394531 L 565.121094 357.574219 L 564.5625 356.742188 L 564.007812 355.902344 L 563.449219 355.050781 L 562.890625 354.195312 L 562.332031 353.328125 L 561.773438 352.453125 L 561.214844 351.570312 L 560.65625 350.679688 L 560.101562 349.78125 L 559.542969 348.875 L 558.984375 347.960938 L 558.425781 347.039062 L 557.867188 346.109375 L 557.308594 345.171875 L 556.75 344.226562 L 556.195312 343.277344 L 555.636719 342.316406 L 555.078125 341.351562 L 554.519531 340.382812 L 553.960938 339.402344 L 553.402344 338.417969 L 552.847656 337.429688 L 552.289062 336.433594 L 551.171875 334.425781 L 550.054688 332.394531 L 549.5 331.371094 L 548.941406 330.34375 L 548.382812 329.3125 L 547.824219 328.277344 L 546.707031 326.191406 L 546.148438 325.144531 L 545.59375 324.09375 L 544.476562 321.984375 L 543.917969 320.921875 L 543.359375 319.863281 L 542.242188 317.730469 L 541.6875 316.664062 L 541.128906 315.59375 L 540.570312 314.527344 L 540.011719 313.453125 L 538.894531 311.3125 L 538.339844 310.242188 L 537.78125 309.167969 L 537.222656 308.097656 L 536.664062 307.03125 L 536.105469 305.960938 L 534.988281 303.828125 L 534.433594 302.765625 L 533.316406 300.648438 L 532.757812 299.59375 L 532.199219 298.542969 L 531.640625 297.496094 L 531.082031 296.453125 L 530.527344 295.414062 L 529.96875 294.382812 L 529.410156 293.355469 L 528.851562 292.332031 L 528.292969 291.316406 L 527.734375 290.304688 L 527.179688 289.304688 L 526.621094 288.308594 L 526.0625 287.320312 L 525.503906 286.34375 L 524.945312 285.371094 L 524.386719 284.410156 L 523.828125 283.457031 L 523.273438 282.515625 L 522.714844 281.585938 L 522.15625 280.667969 L 521.597656 279.757812 L 521.039062 278.863281 L 520.480469 277.980469 L 519.925781 277.113281 L 519.367188 276.257812 L 518.808594 275.417969 L 518.25 274.59375 L 517.691406 273.785156 L 517.132812 272.996094 L 516.574219 272.222656 L 516.019531 271.464844 L 515.460938 270.730469 L 514.902344 270.011719 L 514.34375 269.316406 L 513.785156 268.640625 L 513.226562 267.988281 L 512.671875 267.359375 L 512.113281 266.753906 L 511.554688 266.171875 L 510.996094 265.613281 L 510.4375 265.082031 L 509.878906 264.574219 L 509.320312 264.09375 L 508.765625 263.640625 L 508.207031 263.210938 L 507.648438 262.808594 L 507.089844 262.429688 L 506.53125 262.078125 L 505.972656 261.753906 L 505.417969 261.449219 L 504.859375 261.171875 L 504.300781 260.914062 L 503.742188 260.679688 L 503.183594 260.460938 L 502.625 260.261719 L 502.066406 260.082031 L 501.511719 259.914062 L 500.953125 259.757812 L 500.394531 259.617188 L 499.835938 259.480469 L 499.277344 259.355469 L 498.71875 259.234375 L 498.160156 259.117188 L 497.605469 259.003906 L 496.488281 258.777344 L 495.371094 258.542969 L 494.8125 258.417969 L 494.257812 258.285156 L 493.699219 258.148438 L 493.140625 258.003906 L 492.582031 257.851562 L 492.023438 257.6875 L 491.464844 257.511719 L 490.90625 257.328125 L 490.351562 257.128906 L 489.792969 256.917969 L 489.234375 256.699219 L 488.675781 256.460938 L 488.117188 256.214844 L 487.558594 255.953125 L 487 255.675781 L 486.445312 255.386719 L 485.886719 255.082031 L 485.328125 254.761719 L 484.769531 254.429688 L 484.210938 254.085938 L 483.652344 253.726562 L 483.097656 253.351562 L 482.539062 252.964844 L 481.980469 252.566406 L 481.421875 252.15625 L 480.863281 251.730469 L 480.304688 251.296875 L 479.75 250.847656 L 479.191406 250.390625 L 478.632812 249.925781 L 478.074219 249.449219 L 477.515625 248.964844 L 476.398438 247.972656 L 475.84375 247.464844 L 475.285156 246.957031 L 474.726562 246.445312 L 472.492188 244.382812 L 471.9375 243.871094 L 471.378906 243.367188 L 470.820312 242.867188 L 470.261719 242.378906 L 469.703125 241.898438 L 469.144531 241.429688 L 468.589844 240.976562 L 468.03125 240.539062 L 467.472656 240.117188 L 466.914062 239.71875 L 466.355469 239.339844 L 465.796875 238.984375 L 465.238281 238.652344 L 464.683594 238.347656 L 464.125 238.074219 L 463.566406 237.824219 L 463.007812 237.605469 L 462.449219 237.417969 L 461.890625 237.257812 L 461.335938 237.132812 L 460.777344 237.035156 L 460.21875 236.96875 L 459.660156 236.933594 L 459.101562 236.925781 L 458.542969 236.949219 L 457.984375 237 L 457.429688 237.078125 L 456.871094 237.183594 L 456.3125 237.316406 L 455.753906 237.472656 L 455.195312 237.652344 L 454.636719 237.859375 L 454.078125 238.082031 L 453.523438 238.332031 L 452.964844 238.597656 L 452.40625 238.882812 L 451.847656 239.1875 L 451.289062 239.511719 L 450.730469 239.851562 L 450.175781 240.210938 L 449.617188 240.582031 L 449.058594 240.96875 L 448.5 241.371094 L 447.941406 241.785156 L 447.382812 242.210938 L 446.824219 242.652344 L 446.269531 243.105469 L 445.710938 243.566406 L 445.152344 244.042969 L 444.59375 244.527344 L 444.035156 245.023438 L 443.476562 245.523438 L 442.921875 246.039062 L 442.363281 246.558594 L 441.804688 247.089844 L 441.246094 247.625 L 440.6875 248.167969 L 439.570312 249.277344 L 439.015625 249.84375 L 438.457031 250.410156 L 437.898438 250.984375 L 436.78125 252.148438 L 435.664062 253.328125 L 435.109375 253.925781 L 434.550781 254.523438 L 433.992188 255.125 L 432.875 256.335938 L 432.316406 256.945312 L 431.761719 257.554688 L 431.203125 258.164062 L 428.96875 260.617188 L 428.410156 261.226562 L 427.855469 261.839844 L 427.296875 262.453125 L 426.738281 263.0625 L 426.179688 263.667969 L 425.621094 264.277344 L 425.0625 264.878906 L 424.507812 265.480469 L 423.949219 266.082031 L 422.832031 267.269531 L 422.273438 267.859375 L 421.714844 268.445312 L 421.15625 269.027344 L 420.601562 269.601562 L 420.042969 270.175781 L 419.484375 270.742188 L 418.925781 271.304688 L 418.367188 271.859375 L 417.808594 272.410156 L 417.253906 272.957031 L 416.695312 273.492188 L 416.136719 274.023438 L 415.578125 274.550781 L 415.019531 275.066406 L 414.460938 275.578125 L 413.902344 276.082031 L 413.347656 276.574219 L 412.789062 277.0625 L 412.230469 277.542969 L 411.671875 278.011719 L 411.113281 278.472656 L 410.554688 278.925781 L 409.996094 279.367188 L 409.441406 279.800781 L 408.882812 280.222656 L 408.324219 280.636719 L 407.765625 281.042969 L 407.207031 281.433594 L 406.648438 281.816406 L 406.09375 282.1875 L 405.535156 282.550781 L 404.976562 282.898438 L 404.417969 283.238281 L 403.859375 283.566406 L 403.300781 283.878906 L 402.742188 284.183594 L 402.1875 284.472656 L 401.628906 284.75 L 401.070312 285.015625 L 400.511719 285.269531 L 399.953125 285.511719 L 399.394531 285.738281 L 398.839844 285.953125 L 398.28125 286.152344 L 397.722656 286.339844 L 397.164062 286.515625 L 396.605469 286.671875 L 396.046875 286.820312 L 395.488281 286.953125 L 394.933594 287.070312 L 394.375 287.171875 L 393.816406 287.261719 L 393.257812 287.335938 L 392.699219 287.394531 L 392.140625 287.441406 L 391.585938 287.472656 L 391.027344 287.484375 L 390.46875 287.488281 L 389.910156 287.472656 L 389.351562 287.441406 L 388.792969 287.394531 L 388.234375 287.335938 L 387.679688 287.257812 L 387.121094 287.167969 L 386.5625 287.058594 L 386.003906 286.933594 L 385.445312 286.796875 L 384.886719 286.640625 L 384.328125 286.472656 L 383.773438 286.285156 L 383.214844 286.085938 L 382.65625 285.867188 L 382.097656 285.632812 L 381.539062 285.382812 L 380.980469 285.121094 L 380.425781 284.839844 L 379.867188 284.542969 L 379.308594 284.230469 L 378.75 283.902344 L 378.191406 283.5625 L 377.632812 283.203125 L 377.074219 282.828125 L 376.519531 282.441406 L 375.960938 282.035156 L 375.402344 281.617188 L 374.84375 281.183594 L 374.285156 280.734375 L 373.726562 280.273438 L 373.171875 279.796875 L 372.613281 279.304688 L 372.054688 278.800781 L 371.496094 278.28125 L 370.9375 277.75 L 370.378906 277.203125 L 369.820312 276.648438 L 369.265625 276.078125 L 368.707031 275.496094 L 368.148438 274.90625 L 367.589844 274.300781 L 367.03125 273.691406 L 366.472656 273.070312 L 365.914062 272.4375 L 365.359375 271.800781 L 364.800781 271.15625 L 364.242188 270.507812 L 363.125 269.195312 L 362.566406 268.535156 L 362.011719 267.878906 L 361.453125 267.21875 L 360.894531 266.566406 L 360.335938 265.917969 L 359.777344 265.28125 L 359.21875 264.652344 L 358.660156 264.039062 L 358.105469 263.445312 L 357.546875 262.867188 L 356.988281 262.316406 L 356.429688 261.792969 L 355.871094 261.296875 L 355.3125 260.832031 L 354.757812 260.40625 L 354.199219 260.015625 L 353.640625 259.664062 L 353.082031 259.347656 L 352.523438 259.070312 L 351.964844 258.828125 L 351.40625 258.621094 L 350.851562 258.441406 L 350.292969 258.289062 L 349.734375 258.164062 L 349.175781 258.054688 L 348.617188 257.960938 L 348.058594 257.875 L 347.503906 257.800781 L 346.945312 257.730469 L 346.386719 257.664062 L 345.269531 257.515625 L 344.710938 257.433594 L 344.152344 257.34375 L 343.597656 257.242188 L 343.039062 257.125 L 342.480469 257 L 341.921875 256.855469 L 341.363281 256.695312 L 340.804688 256.519531 L 340.246094 256.320312 L 339.691406 256.105469 L 339.132812 255.871094 L 338.574219 255.613281 L 338.015625 255.335938 L 337.457031 255.039062 L 336.898438 254.714844 L 336.34375 254.371094 L 335.785156 254.003906 L 335.226562 253.613281 L 334.667969 253.199219 L 334.109375 252.757812 L 333.550781 252.296875 L 332.992188 251.808594 L 332.4375 251.296875 L 331.878906 250.761719 L 331.320312 250.199219 L 330.761719 249.613281 L 330.203125 249.003906 L 329.644531 248.371094 L 329.089844 247.710938 L 328.53125 247.027344 L 327.972656 246.320312 L 327.414062 245.585938 L 326.855469 244.828125 L 326.296875 244.046875 L 325.738281 243.242188 L 325.183594 242.410156 L 324.625 241.558594 L 324.066406 240.683594 L 323.507812 239.78125 L 322.949219 238.859375 L 322.390625 237.914062 L 321.835938 236.945312 L 321.277344 235.953125 L 320.71875 234.941406 L 320.160156 233.90625 L 319.601562 232.851562 L 319.042969 231.773438 L 318.484375 230.675781 L 317.929688 229.558594 L 317.371094 228.417969 L 316.8125 227.261719 L 316.253906 226.085938 L 315.695312 224.890625 L 315.136719 223.675781 L 314.578125 222.445312 L 314.023438 221.199219 L 313.464844 219.933594 L 312.90625 218.652344 L 312.347656 217.359375 L 311.789062 216.046875 L 311.230469 214.722656 L 310.675781 213.382812 L 310.117188 212.03125 L 309.558594 210.667969 L 309 209.292969 L 308.441406 207.90625 L 307.882812 206.507812 L 307.324219 205.101562 L 306.769531 203.6875 L 306.210938 202.265625 L 305.652344 200.839844 L 304.535156 197.964844 L 303.976562 196.519531 L 303.421875 195.074219 L 302.304688 192.175781 L 300.628906 187.839844 L 300.070312 186.402344 L 299.515625 184.96875 L 298.957031 183.542969 L 298.398438 182.128906 L 297.839844 180.722656 L 297.28125 179.328125 L 296.722656 177.949219 L 296.164062 176.585938 L 295.609375 175.238281 L 295.050781 173.910156 L 294.492188 172.605469 L 293.933594 171.324219 L 293.375 170.066406 L 292.816406 168.839844 L 292.261719 167.640625 L 291.703125 166.472656 L 291.144531 165.339844 L 290.585938 164.238281 L 290.027344 163.179688 L 289.46875 162.15625 L 288.910156 161.175781 L 288.355469 160.238281 L 287.796875 159.339844 L 287.238281 158.488281 L 286.679688 157.679688 L 286.121094 156.917969 L 285.5625 156.199219 L 285.007812 155.527344 L 284.449219 154.898438 L 283.890625 154.316406 L 283.332031 153.777344 L 282.773438 153.28125 L 282.214844 152.824219 L 281.65625 152.410156 L 281.101562 152.035156 L 280.542969 151.699219 L 279.984375 151.402344 L 279.425781 151.136719 L 278.867188 150.910156 L 278.308594 150.710938 L 277.753906 150.546875 L 277.195312 150.410156 L 276.636719 150.304688 L 276.078125 150.226562 L 275.519531 150.175781 L 274.960938 150.148438 L 274.402344 150.144531 L 273.847656 150.164062 L 273.289062 150.203125 L 272.730469 150.265625 L 272.171875 150.347656 L 271.613281 150.445312 L 271.054688 150.5625 L 270.496094 150.699219 L 269.941406 150.847656 L 269.382812 151.015625 L 268.824219 151.195312 L 268.265625 151.386719 L 267.707031 151.59375 L 267.148438 151.8125 L 266.59375 152.042969 L 266.035156 152.28125 L 265.476562 152.535156 L 264.917969 152.792969 L 264.359375 153.0625 L 263.800781 153.339844 L 263.242188 153.625 L 262.6875 153.917969 L 262.128906 154.214844 L 261.570312 154.519531 L 261.011719 154.832031 L 260.453125 155.148438 L 259.894531 155.46875 L 259.339844 155.792969 L 258.222656 156.449219 L 257.105469 157.121094 L 255.988281 157.800781 L 255.433594 158.140625 L 254.875 158.480469 L 253.757812 159.167969 L 253.199219 159.507812 L 252.640625 159.851562 L 252.085938 160.191406 L 250.96875 160.871094 L 250.410156 161.207031 L 248.734375 162.203125 L 248.179688 162.527344 L 247.621094 162.851562 L 246.503906 163.492188 L 245.945312 163.804688 L 244.828125 164.421875 L 244.273438 164.722656 L 243.714844 165.019531 L 243.15625 165.3125 L 242.597656 165.601562 L 242.039062 165.886719 L 241.480469 166.167969 L 240.925781 166.441406 L 240.367188 166.710938 L 239.808594 166.976562 L 239.25 167.238281 L 238.691406 167.492188 L 238.132812 167.742188 L 237.574219 167.988281 L 237.019531 168.226562 L 236.460938 168.460938 L 235.902344 168.691406 L 235.34375 168.914062 L 234.785156 169.132812 L 234.226562 169.347656 L 233.671875 169.554688 L 233.113281 169.761719 L 232.554688 169.960938 L 231.4375 170.34375 L 230.878906 170.527344 L 230.320312 170.707031 L 229.765625 170.882812 L 229.207031 171.054688 L 228.648438 171.222656 L 228.089844 171.386719 L 227.53125 171.546875 L 226.972656 171.703125 L 226.414062 171.855469 L 225.859375 172.003906 L 224.742188 172.292969 L 224.183594 172.433594 L 223.625 172.570312 L 223.066406 172.703125 L 222.511719 172.835938 L 221.953125 172.96875 L 220.835938 173.226562 L 219.160156 173.601562 L 218.605469 173.726562 L 216.929688 174.101562 L 216.371094 174.230469 L 215.8125 174.355469 L 215.257812 174.484375 L 213.582031 174.882812 L 212.464844 175.164062 L 211.90625 175.308594 L 211.351562 175.460938 L 210.792969 175.613281 L 209.675781 175.933594 L 209.117188 176.105469 L 208.558594 176.28125 L 208.003906 176.460938 L 207.445312 176.648438 L 206.886719 176.847656 L 206.328125 177.050781 L 205.769531 177.261719 L 205.210938 177.484375 L 204.652344 177.710938 L 204.097656 177.953125 L 203.539062 178.199219 L 202.980469 178.460938 L 202.421875 178.730469 L 201.863281 179.015625 L 201.304688 179.308594 L 200.746094 179.617188 L 200.191406 179.933594 L 199.632812 180.269531 L 199.074219 180.613281 L 198.515625 180.976562 L 197.957031 181.351562 L 197.398438 181.738281 L 196.84375 182.144531 L 196.285156 182.566406 L 195.726562 183 L 195.167969 183.453125 L 194.609375 183.917969 L 194.050781 184.402344 L 193.492188 184.898438 L 192.9375 185.414062 L 192.378906 185.941406 L 191.820312 186.488281 L 191.261719 187.046875 L 190.703125 187.621094 L 190.144531 188.207031 L 189.589844 188.808594 L 189.03125 189.425781 L 188.472656 190.050781 L 187.914062 190.6875 L 187.355469 191.339844 L 186.796875 191.996094 L 186.238281 192.664062 L 185.683594 193.34375 L 185.125 194.027344 L 184.566406 194.714844 L 183.449219 196.113281 L 182.890625 196.820312 L 182.335938 197.527344 L 180.660156 199.660156 L 180.101562 200.375 L 179.542969 201.085938 L 178.984375 201.792969 L 178.429688 202.5 L 177.871094 203.203125 L 176.753906 204.601562 L 175.636719 205.976562 L 175.078125 206.65625 L 174.523438 207.328125 L 173.964844 207.996094 L 173.40625 208.65625 L 172.847656 209.304688 L 172.289062 209.949219 L 171.730469 210.585938 L 171.175781 211.210938 L 170.617188 211.832031 L 170.058594 212.441406 L 169.5 213.039062 L 168.941406 213.628906 L 168.382812 214.210938 L 167.824219 214.785156 L 167.269531 215.347656 L 166.710938 215.898438 L 166.152344 216.441406 L 165.59375 216.976562 L 165.035156 217.5 L 164.476562 218.015625 L 163.921875 218.523438 L 163.363281 219.019531 L 162.804688 219.507812 L 162.246094 219.988281 L 161.6875 220.460938 L 161.128906 220.925781 L 160.570312 221.382812 L 160.015625 221.832031 L 159.457031 222.273438 L 158.898438 222.710938 L 158.339844 223.144531 L 157.78125 223.574219 L 156.664062 224.417969 L 156.109375 224.839844 L 155.550781 225.257812 L 154.992188 225.671875 L 154.433594 226.089844 L 153.316406 226.933594 L 152.761719 227.363281 L 152.203125 227.792969 L 151.644531 228.234375 L 151.085938 228.679688 L 150.527344 229.136719 L 149.96875 229.601562 L 149.410156 230.078125 L 148.855469 230.566406 L 148.296875 231.070312 L 147.738281 231.589844 L 147.179688 232.121094 L 146.621094 232.671875 L 146.0625 233.242188 L 145.507812 233.828125 L 144.949219 234.433594 L 144.390625 235.058594 L 143.832031 235.703125 L 143.273438 236.367188 L 142.714844 237.054688 L 142.15625 237.757812 L 141.601562 238.484375 L 141.042969 239.230469 L 140.484375 239.996094 L 139.925781 240.78125 L 139.367188 241.585938 L 138.808594 242.410156 L 138.253906 243.253906 L 137.695312 244.113281 L 137.136719 244.992188 L 136.578125 245.886719 L 136.019531 246.800781 L 135.460938 247.730469 L 134.902344 248.675781 L 134.347656 249.632812 L 133.789062 250.609375 L 133.230469 251.597656 L 132.671875 252.601562 L 132.113281 253.617188 L 131.554688 254.644531 L 130.996094 255.683594 L 130.441406 256.738281 L 129.882812 257.800781 L 129.324219 258.878906 L 128.765625 259.964844 L 128.207031 261.058594 L 127.648438 262.164062 L 127.09375 263.28125 L 126.535156 264.402344 L 125.976562 265.535156 L 125.417969 266.675781 L 124.859375 267.828125 L 124.300781 268.984375 L 123.742188 270.144531 L 123.1875 271.316406 L 122.628906 272.492188 L 122.070312 273.675781 L 120.953125 276.058594 L 120.394531 277.261719 L 119.839844 278.464844 L 119.28125 279.671875 L 118.722656 280.886719 L 118.164062 282.105469 L 117.046875 284.550781 L 116.488281 285.777344 L 115.933594 287.007812 L 114.816406 289.476562 L 113.699219 291.953125 L 113.140625 293.195312 L 112.585938 294.4375 L 110.910156 298.164062 L 110.351562 299.410156 L 109.234375 301.894531 L 108.679688 303.136719 L 106.445312 308.089844 L 105.886719 309.320312 L 105.328125 310.554688 L 104.773438 311.78125 L 104.214844 313.007812 L 103.65625 314.230469 L 103.097656 315.449219 L 102.539062 316.664062 L 101.980469 317.875 L 101.425781 319.082031 L 100.867188 320.285156 L 100.308594 321.484375 L 99.75 322.679688 L 99.191406 323.867188 L 98.632812 325.050781 L 98.074219 326.226562 L 97.519531 327.398438 L 96.960938 328.566406 L 96.402344 329.726562 L 95.84375 330.878906 L 95.285156 332.027344 L 94.726562 333.164062 L 94.171875 334.296875 L 93.613281 335.425781 L 93.054688 336.542969 L 92.496094 337.652344 L 91.9375 338.757812 L 91.378906 339.851562 L 90.820312 340.9375 L 90.265625 342.015625 L 89.707031 343.085938 L 89.148438 344.148438 L 88.589844 345.199219 L 88.03125 346.242188 L 87.472656 347.277344 L 86.914062 348.304688 L 86.359375 349.320312 L 85.800781 350.324219 L 85.242188 351.324219 L 84.683594 352.308594 L 84.125 353.285156 L 83.566406 354.253906 L 83.011719 355.210938 L 82.453125 356.15625 L 81.894531 357.09375 L 81.335938 358.019531 L 80.777344 358.933594 L 80.21875 359.835938 L 79.660156 360.730469 L 79.105469 361.613281 L 78.546875 362.484375 L 77.988281 363.347656 L 77.429688 364.195312 L 76.871094 365.035156 L 76.3125 365.863281 L 75.757812 366.679688 L 75.199219 367.484375 L 74.640625 368.28125 L 74.082031 369.0625 L 73.523438 369.835938 L 72.964844 370.59375 L 72.40625 371.34375 L 71.851562 372.082031 L 71.292969 372.808594 L 70.734375 373.523438 L 70.175781 374.226562 L 69.617188 374.917969 L 69.058594 375.601562 L 68.503906 376.269531 L 67.945312 376.925781 L 67.386719 377.574219 L 66.828125 378.210938 L 66.269531 378.835938 L 65.710938 379.449219 L 65.152344 380.050781 L 64.597656 380.640625 L 64.039062 381.21875 L 63.480469 381.789062 L 62.921875 382.347656 L 62.363281 382.894531 L 61.804688 383.429688 L 61.246094 383.957031 L 60.691406 384.46875 L 60.132812 384.972656 L 59.574219 385.46875 L 59.015625 385.949219 L 58.457031 386.421875 L 57.898438 386.886719 L 57.34375 387.335938 L 56.785156 387.777344 L 56.226562 388.210938 L 55.667969 388.632812 L 55.109375 389.042969 L 54.550781 389.445312 L 53.992188 389.839844 L 53.4375 390.222656 L 52.878906 390.597656 L 52.320312 390.960938 L 51.761719 391.316406 L 51.203125 391.664062 L 50.644531 392 L 50.089844 392.328125 L 49.53125 392.648438 L 48.972656 392.957031 L 48.414062 393.261719 L 47.855469 393.554688 L 47.296875 393.839844 L 46.738281 394.117188 L 46.183594 394.386719 L 45.625 394.648438 L 45.066406 394.90625 L 44.507812 395.152344 L 43.949219 395.390625 L 43.390625 395.621094 L 42.835938 395.847656 L 42.277344 396.0625 L 41.71875 396.273438 L 41.160156 396.476562 L 40.601562 396.675781 L 40.042969 396.863281 L 39.484375 397.046875 L 38.929688 397.226562 L 38.371094 397.398438 L 37.8125 397.5625 L 37.253906 397.722656 L 36.695312 397.875 L 36.136719 398.023438 L 35.578125 398.164062 L 35.023438 398.300781 L 34.464844 398.433594 L 33.90625 398.558594 L 33.347656 398.679688 L 32.789062 398.796875 L 32.230469 398.90625 L 31.675781 399.015625 L 31.117188 399.117188 L 30.558594 399.214844 L 30 399.308594 Z M 30 30.441406 "/>
<g clip-path="url(#clip1)" clip-rule="nonzero">
<path style="fill:none;stroke-width:1.5;stroke-linecap:butt;stroke-linejoin:miter;stroke:rgb(21.600001%,49.399999%,72.2%);stroke-opacity:1;stroke-miterlimit:10;" d="M 40 286.5 L 40.744792 286.625 L 42.234375 286.885417 L 42.973958 287.015625 L 43.71875 287.145833 L 45.208333 287.416667 L 45.953125 287.557292 L 46.697917 287.692708 L 47.4375 287.833333 L 48.182292 287.979167 L 48.927083 288.119792 L 49.671875 288.265625 L 50.416667 288.416667 L 51.161458 288.5625 L 51.90625 288.713542 L 52.645833 288.864583 L 53.390625 289.015625 L 55.625 289.484375 L 56.369792 289.645833 L 57.114583 289.802083 L 57.854167 289.96875 L 59.34375 290.291667 L 60.833333 290.625 L 61.578125 290.796875 L 62.317708 290.96875 L 63.0625 291.135417 L 63.807292 291.3125 L 64.552083 291.484375 L 65.296875 291.661458 L 66.041667 291.833333 L 66.786458 292.010417 L 67.526042 292.192708 L 68.270833 292.369792 L 71.25 293.098958 L 71.989583 293.286458 L 72.734375 293.46875 L 74.96875 294.03125 L 75.713542 294.223958 L 76.458333 294.411458 L 77.197917 294.604167 L 77.942708 294.791667 L 80.921875 295.5625 L 81.661458 295.755208 L 82.40625 295.953125 L 83.895833 296.338542 L 84.640625 296.536458 L 85.385417 296.729167 L 86.130208 296.927083 L 86.869792 297.119792 L 88.359375 297.515625 L 89.104167 297.708333 L 89.848958 297.90625 L 91.338542 298.291667 L 92.078125 298.489583 L 95.802083 299.453125 L 96.541667 299.645833 L 97.286458 299.833333 L 98.03125 300.026042 L 100.265625 300.588542 L 101.010417 300.770833 L 101.75 300.958333 L 103.239583 301.322917 L 103.984375 301.5 L 104.729167 301.682292 L 105.473958 301.859375 L 106.213542 302.036458 L 108.447917 302.552083 L 110.682292 303.052083 L 111.421875 303.213542 L 112.166667 303.369792 L 112.911458 303.53125 L 113.65625 303.6875 L 115.145833 303.989583 L 115.885417 304.135417 L 116.630208 304.28125 L 118.119792 304.5625 L 118.864583 304.697917 L 120.354167 304.958333 L 121.09375 305.088542 L 123.328125 305.447917 L 124.817708 305.666667 L 125.5625 305.770833 L 126.302083 305.875 L 127.046875 305.973958 L 127.791667 306.067708 L 128.536458 306.15625 L 130.026042 306.322917 L 130.765625 306.401042 L 131.510417 306.473958 L 132.255208 306.541667 L 133 306.604167 L 134.489583 306.71875 L 135.234375 306.765625 L 135.973958 306.8125 L 137.463542 306.885417 L 138.953125 306.9375 L 139.697917 306.958333 L 140.4375 306.96875 L 141.182292 306.979167 L 142.671875 306.979167 L 144.161458 306.958333 L 144.90625 306.9375 L 145.645833 306.911458 L 146.390625 306.880208 L 147.880208 306.796875 L 148.625 306.75 L 149.369792 306.692708 L 150.114583 306.630208 L 150.854167 306.5625 L 152.34375 306.40625 L 153.088542 306.317708 L 153.833333 306.223958 L 154.578125 306.119792 L 155.317708 306.015625 L 156.0625 305.901042 L 157.552083 305.651042 L 158.296875 305.515625 L 159.041667 305.375 L 159.786458 305.223958 L 160.526042 305.067708 L 161.270833 304.90625 L 162.015625 304.734375 L 162.760417 304.557292 L 163.505208 304.375 L 164.25 304.182292 L 164.989583 303.984375 L 165.734375 303.776042 L 166.479167 303.5625 L 167.223958 303.34375 L 167.96875 303.114583 L 168.713542 302.880208 L 169.458333 302.635417 L 170.197917 302.385417 L 170.942708 302.125 L 171.6875 301.859375 L 172.432292 301.588542 L 173.177083 301.307292 L 173.921875 301.015625 L 174.661458 300.723958 L 175.40625 300.416667 L 176.151042 300.104167 L 176.895833 299.786458 L 177.640625 299.458333 L 178.385417 299.125 L 179.130208 298.78125 L 179.869792 298.432292 L 180.614583 298.072917 L 181.359375 297.708333 L 182.104167 297.333333 L 182.848958 296.953125 L 183.59375 296.5625 L 184.338542 296.166667 L 185.078125 295.765625 L 186.567708 294.932292 L 187.3125 294.505208 L 188.057292 294.067708 L 188.802083 293.625 L 189.541667 293.171875 L 190.286458 292.713542 L 191.03125 292.25 L 191.776042 291.776042 L 192.520833 291.291667 L 193.265625 290.802083 L 194.010417 290.307292 L 194.75 289.802083 L 195.494792 289.291667 L 196.239583 288.770833 L 196.984375 288.244792 L 197.729167 287.708333 L 198.473958 287.166667 L 199.213542 286.619792 L 199.958333 286.0625 L 200.703125 285.5 L 201.447917 284.927083 L 202.192708 284.348958 L 202.9375 283.760417 L 203.682292 283.166667 L 204.421875 282.567708 L 205.166667 281.958333 L 205.911458 281.34375 L 206.65625 280.723958 L 207.401042 280.09375 L 208.145833 279.458333 L 208.885417 278.817708 L 209.630208 278.166667 L 210.375 277.510417 L 211.119792 276.848958 L 211.864583 276.177083 L 212.609375 275.5 L 213.354167 274.817708 L 214.09375 274.125 L 214.838542 273.432292 L 215.583333 272.729167 L 216.328125 272.020833 L 217.817708 270.583333 L 218.5625 269.854167 L 219.302083 269.119792 L 220.046875 268.380208 L 220.791667 267.635417 L 222.28125 266.125 L 223.026042 265.359375 L 223.765625 264.588542 L 224.510417 263.8125 L 225.255208 263.03125 L 226 262.244792 L 226.744792 261.453125 L 227.489583 260.65625 L 228.234375 259.854167 L 228.973958 259.046875 L 229.71875 258.234375 L 231.208333 256.588542 L 231.953125 255.760417 L 232.697917 254.927083 L 233.4375 254.088542 L 234.182292 253.25 L 234.927083 252.401042 L 236.416667 250.692708 L 237.161458 249.833333 L 237.90625 248.96875 L 238.645833 248.098958 L 240.135417 246.348958 L 240.880208 245.46875 L 241.625 244.583333 L 243.114583 242.802083 L 243.854167 241.90625 L 245.34375 240.104167 L 246.833333 238.291667 L 247.578125 237.375 L 248.317708 236.463542 L 249.0625 235.546875 L 250.552083 233.703125 L 252.041667 231.848958 L 252.786458 230.916667 L 253.526042 229.984375 L 254.270833 229.052083 L 256.505208 226.239583 L 257.25 225.296875 L 257.989583 224.354167 L 259.479167 222.46875 L 262.458333 218.677083 L 263.197917 217.729167 L 263.942708 216.78125 L 264.6875 215.828125 L 266.177083 213.932292 L 266.921875 212.979167 L 267.661458 212.03125 L 269.895833 209.1875 L 270.640625 208.244792 L 271.385417 207.296875 L 272.130208 206.354167 L 272.869792 205.411458 L 273.614583 204.46875 L 275.848958 201.65625 L 277.338542 199.791667 L 278.078125 198.864583 L 278.822917 197.942708 L 279.567708 197.015625 L 281.057292 195.182292 L 281.802083 194.270833 L 282.541667 193.359375 L 283.286458 192.453125 L 284.03125 191.552083 L 284.776042 190.65625 L 286.265625 188.875 L 287.010417 187.989583 L 287.75 187.114583 L 288.494792 186.239583 L 289.239583 185.369792 L 290.729167 183.651042 L 291.473958 182.802083 L 292.213542 181.958333 L 292.958333 181.119792 L 293.703125 180.286458 L 294.447917 179.463542 L 295.192708 178.645833 L 295.9375 177.833333 L 296.682292 177.03125 L 297.421875 176.234375 L 298.166667 175.447917 L 299.65625 173.895833 L 300.401042 173.135417 L 301.145833 172.380208 L 301.885417 171.635417 L 302.630208 170.901042 L 303.375 170.177083 L 304.119792 169.458333 L 304.864583 168.75 L 305.609375 168.052083 L 306.354167 167.369792 L 307.09375 166.692708 L 307.838542 166.026042 L 308.583333 165.375 L 309.328125 164.729167 L 310.072917 164.098958 L 310.817708 163.479167 L 311.5625 162.869792 L 312.302083 162.276042 L 313.046875 161.692708 L 313.791667 161.125 L 314.536458 160.567708 L 315.28125 160.020833 L 316.026042 159.489583 L 316.765625 158.973958 L 317.510417 158.46875 L 318.255208 157.979167 L 319 157.505208 L 319.744792 157.041667 L 320.489583 156.59375 L 321.234375 156.166667 L 321.973958 155.75 L 322.71875 155.348958 L 323.463542 154.963542 L 324.208333 154.588542 L 324.953125 154.239583 L 325.697917 153.901042 L 326.4375 153.578125 L 327.182292 153.270833 L 327.927083 152.984375 L 328.671875 152.713542 L 329.416667 152.458333 L 330.161458 152.223958 L 330.90625 152.005208 L 331.645833 151.802083 L 332.390625 151.619792 L 333.135417 151.453125 L 333.880208 151.307292 L 334.625 151.182292 L 335.369792 151.072917 L 336.114583 150.979167 L 336.854167 150.90625 L 337.598958 150.854167 L 338.34375 150.822917 L 339.088542 150.807292 L 339.833333 150.8125 L 340.578125 150.838542 L 341.317708 150.885417 L 342.0625 150.947917 L 342.807292 151.03125 L 343.552083 151.140625 L 344.296875 151.265625 L 345.041667 151.411458 L 345.786458 151.578125 L 346.526042 151.765625 L 347.270833 151.973958 L 348.015625 152.203125 L 348.760417 152.453125 L 349.505208 152.723958 L 350.25 153.015625 L 350.989583 153.328125 L 351.734375 153.661458 L 352.479167 154.020833 L 353.223958 154.395833 L 353.96875 154.791667 L 354.713542 155.213542 L 355.458333 155.65625 L 356.197917 156.114583 L 356.942708 156.598958 L 357.6875 157.104167 L 358.432292 157.630208 L 359.177083 158.177083 L 359.921875 158.744792 L 360.661458 159.338542 L 361.40625 159.947917 L 362.151042 160.578125 L 362.895833 161.234375 L 363.640625 161.90625 L 364.385417 162.604167 L 365.130208 163.322917 L 365.869792 164.057292 L 366.614583 164.817708 L 367.359375 165.59375 L 368.104167 166.395833 L 368.848958 167.213542 L 369.59375 168.057292 L 370.338542 168.916667 L 371.078125 169.796875 L 371.822917 170.697917 L 372.567708 171.614583 L 373.3125 172.557292 L 374.057292 173.515625 L 374.802083 174.489583 L 375.541667 175.489583 L 376.286458 176.505208 L 377.03125 177.541667 L 377.776042 178.59375 L 378.520833 179.661458 L 379.265625 180.75 L 380.010417 181.859375 L 380.75 182.979167 L 381.494792 184.125 L 382.239583 185.28125 L 382.984375 186.453125 L 383.729167 187.645833 L 384.473958 188.854167 L 385.213542 190.072917 L 385.958333 191.3125 L 386.703125 192.567708 L 387.447917 193.833333 L 388.192708 195.119792 L 388.9375 196.416667 L 389.682292 197.723958 L 390.421875 199.046875 L 391.166667 200.385417 L 391.911458 201.734375 L 392.65625 203.098958 L 393.401042 204.473958 L 394.145833 205.859375 L 394.885417 207.260417 L 395.630208 208.666667 L 396.375 210.088542 L 397.119792 211.515625 L 397.864583 212.953125 L 398.609375 214.401042 L 399.354167 215.859375 L 400.09375 217.328125 L 400.838542 218.802083 L 401.583333 220.28125 L 402.328125 221.770833 L 403.072917 223.265625 L 403.817708 224.765625 L 404.5625 226.276042 L 405.302083 227.791667 L 406.046875 229.307292 L 406.791667 230.828125 L 407.536458 232.359375 L 408.28125 233.885417 L 409.026042 235.421875 L 409.765625 236.958333 L 410.510417 238.494792 L 413.489583 244.661458 L 414.234375 246.208333 L 414.973958 247.75 L 415.71875 249.291667 L 417.953125 253.901042 L 418.697917 255.432292 L 419.4375 256.963542 L 420.182292 258.489583 L 421.671875 261.520833 L 422.416667 263.03125 L 423.161458 264.536458 L 423.90625 266.036458 L 424.645833 267.526042 L 425.390625 269.010417 L 426.135417 270.489583 L 426.880208 271.958333 L 427.625 273.416667 L 428.369792 274.869792 L 429.114583 276.307292 L 429.854167 277.739583 L 430.598958 279.161458 L 431.34375 280.572917 L 432.088542 281.973958 L 432.833333 283.359375 L 433.578125 284.734375 L 434.317708 286.098958 L 435.0625 287.453125 L 435.807292 288.786458 L 436.552083 290.114583 L 437.296875 291.421875 L 438.041667 292.71875 L 438.786458 294 L 439.526042 295.265625 L 440.270833 296.515625 L 441.015625 297.75 L 441.760417 298.96875 L 442.505208 300.166667 L 443.25 301.354167 L 443.989583 302.520833 L 444.734375 303.671875 L 445.479167 304.802083 L 446.223958 305.916667 L 446.96875 307.010417 L 447.713542 308.088542 L 448.458333 309.145833 L 449.197917 310.1875 L 449.942708 311.203125 L 450.6875 312.203125 L 451.432292 313.182292 L 452.177083 314.140625 L 452.921875 315.083333 L 453.661458 316 L 454.40625 316.895833 L 455.151042 317.770833 L 455.895833 318.625 L 456.640625 319.458333 L 457.385417 320.270833 L 458.130208 321.0625 L 458.869792 321.833333 L 459.614583 322.578125 L 460.359375 323.302083 L 461.104167 324 L 461.848958 324.682292 L 462.59375 325.338542 L 463.338542 325.973958 L 464.078125 326.583333 L 464.822917 327.171875 L 465.567708 327.739583 L 466.3125 328.286458 L 467.057292 328.807292 L 467.802083 329.302083 L 468.541667 329.776042 L 469.286458 330.229167 L 470.03125 330.661458 L 470.776042 331.067708 L 471.520833 331.447917 L 472.265625 331.8125 L 473.010417 332.151042 L 473.75 332.46875 L 474.494792 332.760417 L 475.239583 333.03125 L 475.984375 333.28125 L 476.729167 333.505208 L 477.473958 333.708333 L 478.213542 333.890625 L 478.958333 334.052083 L 479.703125 334.192708 L 480.447917 334.307292 L 481.192708 334.401042 L 481.9375 334.479167 L 482.682292 334.53125 L 483.421875 334.5625 L 484.166667 334.572917 L 484.911458 334.567708 L 485.65625 334.536458 L 486.401042 334.489583 L 487.145833 334.416667 L 487.885417 334.328125 L 488.630208 334.223958 L 489.375 334.09375 L 490.119792 333.947917 L 490.864583 333.78125 L 491.609375 333.598958 L 492.354167 333.401042 L 493.09375 333.182292 L 493.838542 332.947917 L 494.583333 332.692708 L 495.328125 332.421875 L 496.072917 332.135417 L 496.817708 331.833333 L 497.5625 331.515625 L 498.302083 331.182292 L 499.046875 330.833333 L 499.791667 330.46875 L 500.536458 330.088542 L 501.28125 329.697917 L 502.026042 329.291667 L 502.765625 328.875 L 503.510417 328.442708 L 504.255208 327.994792 L 505 327.541667 L 505.744792 327.072917 L 506.489583 326.588542 L 507.234375 326.098958 L 507.973958 325.598958 L 508.71875 325.083333 L 509.463542 324.5625 L 510.208333 324.03125 L 510.953125 323.489583 L 511.697917 322.9375 L 512.4375 322.380208 L 513.182292 321.817708 L 513.927083 321.244792 L 515.416667 320.078125 L 516.161458 319.484375 L 516.90625 318.885417 L 517.645833 318.28125 L 518.390625 317.671875 L 519.135417 317.057292 L 520.625 315.817708 L 522.114583 314.567708 L 522.854167 313.932292 L 523.598958 313.302083 L 526.578125 310.760417 L 527.317708 310.119792 L 530.296875 307.578125 L 531.786458 306.317708 L 532.526042 305.692708 L 533.270833 305.067708 L 534.760417 303.828125 L 535.505208 303.213542 L 536.25 302.604167 L 536.989583 302 L 537.734375 301.401042 L 538.479167 300.807292 L 539.223958 300.21875 L 540.713542 299.0625 L 541.458333 298.494792 L 542.197917 297.932292 L 542.942708 297.375 L 543.6875 296.828125 L 545.177083 295.755208 L 545.921875 295.234375 L 546.661458 294.71875 L 547.40625 294.213542 L 548.151042 293.71875 L 548.895833 293.229167 L 549.640625 292.755208 L 550.385417 292.286458 L 551.130208 291.828125 L 551.869792 291.380208 L 552.614583 290.947917 L 553.359375 290.520833 L 554.104167 290.104167 L 554.848958 289.703125 L 555.59375 289.307292 L 556.338542 288.927083 L 557.078125 288.557292 L 557.822917 288.203125 L 558.567708 287.854167 L 559.3125 287.520833 L 560.057292 287.203125 L 560.802083 286.890625 L 561.541667 286.598958 L 562.286458 286.3125 L 563.03125 286.041667 L 563.776042 285.78125 L 564.520833 285.536458 L 565.265625 285.307292 L 566.010417 285.088542 L 566.75 284.880208 L 567.494792 284.6875 L 568.239583 284.505208 L 568.984375 284.338542 L 569.729167 284.1875 L 570.473958 284.046875 L 571.213542 283.916667 L 571.958333 283.807292 L 572.703125 283.703125 L 573.447917 283.619792 L 574.192708 283.541667 L 574.9375 283.484375 L 575.682292 283.4375 L 576.421875 283.401042 L 577.166667 283.380208 L 577.911458 283.369792 L 578.65625 283.375 L 579.401042 283.395833 L 580.145833 283.427083 L 580.885417 283.46875 L 581.630208 283.526042 L 582.375 283.59375 L 583.119792 283.677083 L 583.864583 283.770833 L 584.609375 283.875 L 585.354167 283.994792 L 586.09375 284.125 L 586.838542 284.265625 L 587.583333 284.421875 L 588.328125 284.588542 L 589.072917 284.765625 L 589.817708 284.953125 L 590.5625 285.151042 L 591.302083 285.364583 L 592.046875 285.588542 L 592.791667 285.817708 L 593.536458 286.0625 L 594.28125 286.3125 L 595.026042 286.578125 L 595.765625 286.848958 L 596.510417 287.135417 L 597.255208 287.427083 L 598 287.729167 L 598.744792 288.036458 L 599.489583 288.359375 L 600.234375 288.6875 L 600.973958 289.020833 L 602.463542 289.71875 L 603.953125 290.447917 L 604.697917 290.822917 L 605.4375 291.208333 L 606.182292 291.598958 L 606.927083 291.994792 L 607.671875 292.395833 L 608.416667 292.802083 L 609.90625 293.635417 L 610.645833 294.0625 L 611.390625 294.489583 L 612.880208 295.364583 L 613.625 295.807292 L 614.369792 296.255208 L 615.114583 296.708333 L 615.854167 297.161458 L 617.34375 298.078125 L 618.088542 298.541667 L 619.578125 299.479167 L 620.317708 299.947917 L 621.0625 300.416667 L 623.296875 301.838542 L 624.041667 302.317708 L 624.786458 302.791667 L 625.526042 303.270833 L 627.015625 304.21875 L 627.760417 304.697917 L 628.505208 305.171875 L 629.25 305.640625 L 629.989583 306.114583 L 632.223958 307.520833 L 632.96875 307.984375 L 634.458333 308.901042 L 635.197917 309.359375 L 635.942708 309.8125 L 637.432292 310.708333 L 639.666667 312.020833 L 640.40625 312.447917 L 641.895833 313.291667 L 642.640625 313.708333 L 644.130208 314.520833 L 644.869792 314.916667 L 645.614583 315.3125 L 646.359375 315.697917 L 647.104167 316.078125 L 647.848958 316.453125 L 648.59375 316.822917 L 649.333333 317.182292 L 650.078125 317.536458 L 650.822917 317.885417 L 651.567708 318.229167 L 652.3125 318.5625 L 653.057292 318.890625 L 653.802083 319.208333 L 654.541667 319.520833 L 655.286458 319.828125 L 656.03125 320.125 L 656.776042 320.411458 L 657.520833 320.692708 L 658.265625 320.96875 L 659.010417 321.234375 L 659.75 321.494792 L 661.239583 321.984375 L 662.729167 322.442708 L 663.473958 322.65625 L 664.213542 322.864583 L 664.958333 323.0625 L 665.703125 323.255208 L 666.447917 323.4375 L 667.192708 323.609375 L 667.9375 323.770833 L 668.682292 323.927083 L 669.421875 324.072917 L 670.166667 324.213542 L 670.911458 324.34375 L 671.65625 324.463542 L 672.401042 324.572917 L 673.145833 324.677083 L 673.890625 324.770833 L 674.630208 324.859375 L 675.375 324.932292 L 676.119792 325 L 676.864583 325.0625 L 677.609375 325.109375 L 678.354167 325.151042 L 679.09375 325.1875 L 680.583333 325.229167 L 681.328125 325.234375 L 682.072917 325.234375 L 682.817708 325.223958 L 683.5625 325.203125 L 684.302083 325.177083 L 685.046875 325.145833 L 685.791667 325.104167 L 686.536458 325.052083 L 687.28125 324.994792 L 688.026042 324.927083 L 688.765625 324.854167 L 689.510417 324.770833 L 691 324.583333 L 692.489583 324.364583 L 693.234375 324.244792 L 693.973958 324.114583 L 694.71875 323.984375 L 696.208333 323.692708 L 696.953125 323.536458 L 697.697917 323.375 L 698.4375 323.208333 L 699.182292 323.03125 L 699.927083 322.848958 L 700.671875 322.661458 L 701.416667 322.46875 L 702.90625 322.0625 L 703.645833 321.848958 L 705.135417 321.411458 L 705.880208 321.182292 L 706.625 320.947917 L 707.369792 320.708333 L 708.109375 320.463542 L 708.854167 320.21875 L 709.598958 319.963542 L 711.088542 319.442708 L 712.578125 318.901042 L 713.317708 318.625 L 714.0625 318.348958 L 715.552083 317.776042 L 717.041667 317.192708 L 717.786458 316.895833 L 718.526042 316.59375 L 719.270833 316.291667 L 720.015625 315.984375 L 722.25 315.046875 L 722.989583 314.729167 L 723.734375 314.411458 L 725.223958 313.765625 L 727.458333 312.78125 L 728.197917 312.453125 L 730.432292 311.453125 L 731.177083 311.114583 L 731.921875 310.78125 L 732.666667 310.442708 L 733.40625 310.104167 L 734.895833 309.427083 L 735.640625 309.083333 L 737.130208 308.40625 L 737.869792 308.0625 L 740.104167 307.046875 L 740.848958 306.703125 L 741.59375 306.364583 L 742.333333 306.026042 L 743.078125 305.6875 L 743.822917 305.354167 L 744.567708 305.015625 L 745.3125 304.682292 L 746.057292 304.34375 L 746.802083 304.010417 L 747.541667 303.682292 L 748.286458 303.348958 L 751.265625 302.036458 L 752.010417 301.713542 L 752.75 301.390625 L 755.729167 300.119792 L 756.473958 299.807292 L 757.213542 299.5 L 757.958333 299.1875 L 758.703125 298.885417 L 759.447917 298.578125 L 760.192708 298.276042 L 760.9375 297.979167 L 761.682292 297.677083 L 762.421875 297.385417 L 763.911458 296.802083 L 765.401042 296.229167 L 766.890625 295.666667 L 767.630208 295.390625 L 768.375 295.114583 L 769.864583 294.572917 L 771.354167 294.041667 L 772.09375 293.78125 L 774.328125 293.015625 L 775.072917 292.770833 L 775.817708 292.520833 L 776.5625 292.276042 L 777.302083 292.036458 L 779.536458 291.333333 L 780.28125 291.104167 L 781.026042 290.880208 L 781.765625 290.65625 L 783.255208 290.21875 L 784 290.005208 " transform="matrix(0.75,0,0,0.75,0,0)"/>
</g>
<path style=" stroke:none;fill-rule:nonzero;fill:rgb(89.399999%,10.2%,11%);fill-opacity:1;" d="M 363.066406 245.4375 C 363.066406 249.9375 356.316406 249.9375 356.316406 245.4375 C 356.316406 240.9375 363.066406 240.9375 363.066406 245.4375 "/>
<path style=" stroke:none;fill-rule:nonzero;fill:rgb(89.399999%,10.2%,11%);fill-opacity:1;" d="M 461.246094 218.515625 C 461.246094 223.015625 454.496094 223.015625 454.496094 218.515625 C 454.496094 214.015625 461.246094 214.015625 461.246094 218.515625 "/>
<path style=" stroke:none;fill-rule:nonzero;fill:rgb(89.399999%,10.2%,11%);fill-opacity:1;" d="M 349.335938 241.757812 C 349.335938 246.257812 342.585938 246.257812 342.585938 241.757812 C 342.585938 237.257812 349.335938 237.257812 349.335938 241.757812 "/>
<path style=" stroke:none;fill-rule:nonzero;fill:rgb(89.399999%,10.2%,11%);fill-opacity:1;" d="M 290.101562 137.605469 C 290.101562 142.105469 283.351562 142.105469 283.351562 137.605469 C 283.351562 133.105469 290.101562 133.105469 290.101562 137.605469 "/>
<path style=" stroke:none;fill-rule:nonzero;fill:rgb(89.399999%,10.2%,11%);fill-opacity:1;" d="M 476.441406 232.179688 C 476.441406 236.679688 469.691406 236.679688 469.691406 232.179688 C 469.691406 227.679688 476.441406 227.679688 476.441406 232.179688 "/>
<path style=" stroke:none;fill-rule:nonzero;fill:rgb(89.399999%,10.2%,11%);fill-opacity:1;" d="M 509.988281 243.53125 C 509.988281 248.03125 503.238281 248.03125 503.238281 243.53125 C 503.238281 239.03125 509.988281 239.03125 509.988281 243.53125 "/>
<path style=" stroke:none;fill-rule:nonzero;fill:rgb(89.399999%,10.2%,11%);fill-opacity:1;" d="M 145.300781 220.492188 C 145.300781 224.992188 138.550781 224.992188 138.550781 220.492188 C 138.550781 215.992188 145.300781 215.992188 145.300781 220.492188 "/>
<path style=" stroke:none;fill-rule:nonzero;fill:rgb(89.399999%,10.2%,11%);fill-opacity:1;" d="M 200 164.074219 C 200 168.574219 193.25 168.574219 193.25 164.074219 C 193.25 159.574219 200 159.574219 200 164.074219 "/>
<path style=" stroke:none;fill-rule:nonzero;fill:rgb(89.399999%,10.2%,11%);fill-opacity:1;" d="M 171.109375 198.320312 C 171.109375 202.820312 164.359375 202.820312 164.359375 198.320312 C 164.359375 193.820312 171.109375 193.820312 171.109375 198.320312 "/>
<path style=" stroke:none;fill-rule:nonzero;fill:rgb(89.399999%,10.2%,11%);fill-opacity:1;" d="M 356.832031 256.21875 C 356.832031 260.71875 350.082031 260.71875 350.082031 256.21875 C 350.082031 251.71875 356.832031 251.71875 356.832031 256.21875 "/>
<path style="fill:none;stroke-width:1;stroke-linecap:butt;stroke-linejoin:miter;stroke:rgb(0%,0%,0%);stroke-opacity:1;stroke-miterlimit:10;" d="M 40 557.5 L 40 563.5 " transform="matrix(0.75,0,0,0.75,0,0)"/>
<path style="fill:none;stroke-width:1;stroke-linecap:butt;stroke-linejoin:miter;stroke:rgb(0%,0%,0%);stroke-opacity:1;stroke-miterlimit:10;" d="M 412 557.5 L 412 563.5 " transform="matrix(0.75,0,0,0.75,0,0)"/>
<path style="fill:none;stroke-width:1;stroke-linecap:butt;stroke-linejoin:miter;stroke:rgb(0%,0%,0%);stroke-opacity:1;stroke-miterlimit:10;" d="M 784 557.5 L 784 563.5 " transform="matrix(0.75,0,0,0.75,0,0)"/>
<path style="fill:none;stroke-width:1;stroke-linecap:butt;stroke-linejoin:miter;stroke:rgb(0%,0%,0%);stroke-opacity:1;stroke-miterlimit:10;" d="M 39.5 448.380208 L 33.5 448.380208 " transform="matrix(0.75,0,0,0.75,0,0)"/>
<path style="fill:none;stroke-width:1;stroke-linecap:butt;stroke-linejoin:miter;stroke:rgb(0%,0%,0%);stroke-opacity:1;stroke-miterlimit:10;" d="M 39.5 279.755208 L 33.5 279.755208 " transform="matrix(0.75,0,0,0.75,0,0)"/>
<path style="fill:none;stroke-width:1;stroke-linecap:butt;stroke-linejoin:miter;stroke:rgb(0%,0%,0%);stroke-opacity:1;stroke-miterlimit:10;" d="M 39.5 111.135417 L 33.5 111.135417 " transform="matrix(0.75,0,0,0.75,0,0)"/>
<path style="fill:none;stroke-width:1;stroke-linecap:butt;stroke-linejoin:miter;stroke:rgb(0%,0%,0%);stroke-opacity:1;stroke-miterlimit:10;" d="M 39.5 557 L 784.5 557 " transform="matrix(0.75,0,0,0.75,0,0)"/>
<path style="fill:none;stroke-width:1;stroke-linecap:butt;stroke-linejoin:miter;stroke:rgb(0%,0%,0%);stroke-opacity:1;stroke-miterlimit:10;" d="M 40 557.5 L 40 15.5 " transform="matrix(0.75,0,0,0.75,0,0)"/>
<path style="fill:none;stroke-width:1;stroke-linecap:butt;stroke-linejoin:miter;stroke:rgb(0%,0%,0%);stroke-opacity:1;stroke-miterlimit:10;" d="M 39.5 16 L 784.5 16 " transform="matrix(0.75,0,0,0.75,0,0)"/>
<path style="fill:none;stroke-width:1;stroke-linecap:butt;stroke-linejoin:miter;stroke:rgb(0%,0%,0%);stroke-opacity:1;stroke-miterlimit:10;" d="M 784 557.5 L 784 15.5 " transform="matrix(0.75,0,0,0.75,0,0)"/>
</g>
</svg>
